<svg width="64" height="64" viewBox="0 0 64 64" fill="none" xmlns="http://www.w3.org/2000/svg">
<path d="M47 61H44V58C44 57.7348 43.8946 57.4804 43.7071 57.2929C43.5196 57.1054 43.2652 57 43 57H33C32.7348 57 32.4804 57.1054 32.2929 57.2929C32.1054 57.4804 32 57.7348 32 58V61H29C28.7348 61 28.4804 61.1054 28.2929 61.2929C28.1054 61.4804 28 61.7348 28 62C28 62.2652 28.1054 62.5196 28.2929 62.7071C28.4804 62.8946 28.7348 63 29 63H47C47.2652 63 47.5196 62.8946 47.7071 62.7071C47.8946 62.5196 48 62.2652 48 62C48 61.7348 47.8946 61.4804 47.7071 61.2929C47.5196 61.1054 47.2652 61 47 61Z" fill="#FFF2B2"/>
<path d="M60 19H16C15.2044 19 14.4413 19.3161 13.8787 19.8787C13.3161 20.4413 13 21.2044 13 22V47H63V22C63 21.2044 62.6839 20.4413 62.1213 19.8787C61.5587 19.3161 60.7957 19 60 19ZM55 42H21C20.7348 42 20.4804 41.8946 20.2929 41.7071C20.1054 41.5196 20 41.2652 20 41C20 40.7348 20.1054 40.4804 20.2929 40.2929C20.4804 40.1054 20.7348 40 21 40H55C55.2652 40 55.5196 40.1054 55.7071 40.2929C55.8946 40.4804 56 40.7348 56 41C56 41.2652 55.8946 41.5196 55.7071 41.7071C55.5196 41.8946 55.2652 42 55 42ZM55 35H21C20.7348 35 20.4804 34.8946 20.2929 34.7071C20.1054 34.5196 20 34.2652 20 34C20 33.7348 20.1054 33.4804 20.2929 33.2929C20.4804 33.1054 20.7348 33 21 33H55C55.2652 33 55.5196 33.1054 55.7071 33.2929C55.8946 33.4804 56 33.7348 56 34C56 34.2652 55.8946 34.5196 55.7071 34.7071C55.5196 34.8946 55.2652 35 55 35ZM55 28H21C20.7348 28 20.4804 27.8946 20.2929 27.7071C20.1054 27.5196 20 27.2652 20 27C20 26.7348 20.1054 26.4804 20.2929 26.2929C20.4804 26.1054 20.7348 26 21 26H55C55.2652 26 55.5196 26.1054 55.7071 26.2929C55.8946 26.4804 56 26.7348 56 27C56 27.2652 55.8946 27.5196 55.7071 27.7071C55.5196 27.8946 55.2652 28 55 28Z" fill="#FFF2B2"/>
<path d="M13 52C13 52.7956 13.3161 53.5587 13.8787 54.1213C14.4413 54.6839 15.2044 55 16 55H60C60.7957 55 61.5587 54.6839 62.1213 54.1213C62.6839 53.5587 63 52.7956 63 52V49H13V52Z" fill="#FFF2B2"/>
<path d="M47.7519 22.2699L43.1589 17.0289L43.7949 10.0859C43.8168 9.84451 43.7504 9.6033 43.6078 9.40721C43.4652 9.21112 43.2563 9.07349 43.0199 9.01995L36.2199 7.48394L32.6589 1.48994C32.5347 1.28157 32.3391 1.1254 32.1084 1.05053C31.8777 0.975655 31.6277 0.987175 31.4049 1.08294L24.9999 3.83994L18.5999 1.08294C18.3769 0.986896 18.1266 0.975227 17.8957 1.05011C17.6648 1.125 17.469 1.28133 17.3449 1.48994L13.7849 7.48394L6.98086 9.01995C6.74422 9.07329 6.53504 9.21082 6.39228 9.40693C6.24952 9.60305 6.18291 9.84437 6.20486 10.0859L6.84086 17.0279L2.24786 22.2699C2.08808 22.4523 2 22.6865 2 22.9289C2 23.1714 2.08808 23.4056 2.24786 23.5879L6.84086 28.8299L6.20486 35.7709C6.18291 36.0125 6.24952 36.2538 6.39228 36.45C6.53504 36.6461 6.74422 36.7836 6.98086 36.8369L13.7809 38.3749L17.3409 44.3679C17.4659 44.5756 17.6617 44.7312 17.8922 44.8062C18.1228 44.8811 18.3726 44.8704 18.5959 44.7759L18.9999 44.5999V49.9999C18.9998 50.166 19.0411 50.3295 19.12 50.4756C19.1989 50.6218 19.313 50.746 19.4519 50.837C19.5909 50.928 19.7503 50.9829 19.9158 50.9969C20.0813 51.0109 20.2476 50.9834 20.3999 50.9169L24.9999 48.9359L29.6049 50.9179C29.7569 50.9833 29.9228 51.0099 30.0877 50.9954C30.2526 50.9809 30.4113 50.9256 30.5496 50.8346C30.6878 50.7436 30.8014 50.6197 30.88 50.4741C30.9585 50.3284 30.9997 50.1655 30.9999 49.9999V44.5999L31.4049 44.7739C31.6278 44.8696 31.8779 44.881 32.1086 44.8059C32.3393 44.7309 32.5349 44.5745 32.6589 44.3659L36.2189 38.3729L43.0189 36.8359C43.2553 36.7824 43.4642 36.6448 43.6068 36.4487C43.7494 36.2526 43.8158 36.0114 43.7939 35.7699L43.1579 28.8279L47.7509 23.5859C47.9102 23.4038 47.9982 23.1701 47.9983 22.9281C47.9985 22.6861 47.9109 22.4523 47.7519 22.2699ZM28.9999 48.4809L25.3999 46.9289C25.2749 46.8752 25.1404 46.8474 25.0044 46.8474C24.8684 46.8474 24.7338 46.8752 24.6089 46.9289L20.9999 48.4809V43.7409L24.9999 42.0179L28.9999 43.7409V48.4809ZM41.3719 27.8339C41.2829 27.9362 41.2155 28.0553 41.1735 28.1841C41.1316 28.313 41.1161 28.449 41.1279 28.5839L41.7229 35.0839L35.3589 36.5209C35.2263 36.551 35.1013 36.6077 34.9915 36.6876C34.8816 36.7676 34.7892 36.8691 34.7199 36.9859L31.3889 42.5939L25.3999 40.0099C25.2747 39.957 25.1402 39.9297 25.0044 39.9297C24.8685 39.9297 24.734 39.957 24.6089 40.0099L18.6159 42.5909L15.2799 36.9829C15.2105 36.8661 15.1181 36.7646 15.0082 36.6846C14.8984 36.6047 14.7734 36.548 14.6409 36.5179L8.27786 35.0799L8.87186 28.5799C8.88415 28.4449 8.86887 28.3088 8.82692 28.1799C8.78497 28.0509 8.71725 27.9319 8.62786 27.8299L4.32786 22.9249L8.62786 18.0189C8.71725 17.917 8.78497 17.7979 8.82692 17.669C8.86887 17.5401 8.88415 17.404 8.87186 17.2689L8.27786 10.7739L14.6419 9.33994C14.7743 9.31003 14.8992 9.25346 15.0091 9.17369C15.119 9.09392 15.2114 8.99261 15.2809 8.87594L18.6119 3.26594L24.6049 5.84694C24.7296 5.90137 24.8643 5.92947 25.0004 5.92947C25.1365 5.92947 25.2711 5.90137 25.3959 5.84694L31.3889 3.26594L34.7209 8.87594C34.7903 8.99261 34.8828 9.09392 34.9926 9.17369C35.1025 9.25346 35.2274 9.31003 35.3599 9.33994L41.7229 10.7779L41.1279 17.2779C41.116 17.4129 41.1315 17.549 41.1734 17.6778C41.2153 17.8067 41.2828 17.9258 41.3719 18.0279L45.6719 22.9279L41.3719 27.8339Z" fill="#332C2B"/>
<path d="M25 10C22.4288 10 19.9154 10.7624 17.7776 12.1909C15.6398 13.6194 13.9735 15.6497 12.9896 18.0251C12.0056 20.4006 11.7482 23.0144 12.2498 25.5362C12.7514 28.0579 13.9895 30.3743 15.8076 32.1924C17.6257 34.0105 19.9421 35.2486 22.4638 35.7502C24.9856 36.2518 27.5995 35.9944 29.9749 35.0104C32.3503 34.0265 34.3807 32.3603 35.8091 30.2224C37.2376 28.0846 38 25.5712 38 23C37.996 19.5534 36.6251 16.2491 34.188 13.812C31.7509 11.3749 28.4466 10.004 25 10ZM25 34C22.8244 34 20.6977 33.3549 18.8887 32.1462C17.0798 30.9375 15.6699 29.2195 14.8373 27.2095C14.0048 25.1995 13.7869 22.9878 14.2114 20.854C14.6358 18.7202 15.6835 16.7602 17.2218 15.2218C18.7602 13.6834 20.7202 12.6358 22.854 12.2114C24.9878 11.7869 27.1995 12.0048 29.2095 12.8373C31.2195 13.6699 32.9375 15.0798 34.1462 16.8887C35.3549 18.6977 36 20.8244 36 23C35.9966 25.9163 34.8365 28.7122 32.7744 30.7744C30.7122 32.8365 27.9163 33.9966 25 34Z" fill="#332C2B"/>
<path d="M25 15C22.879 15.0024 20.8456 15.846 19.3458 17.3458C17.846 18.8456 17.0024 20.879 17 23C17 23.2652 17.1054 23.5196 17.2929 23.7071C17.4804 23.8946 17.7348 24 18 24C18.2652 24 18.5196 23.8946 18.7071 23.7071C18.8946 23.5196 19 23.2652 19 23C19.0019 21.4093 19.6346 19.8842 20.7594 18.7594C21.8842 17.6346 23.4093 17.0019 25 17C25.2652 17 25.5196 16.8946 25.7071 16.7071C25.8946 16.5196 26 16.2652 26 16C26 15.7348 25.8946 15.4804 25.7071 15.2929C25.5196 15.1054 25.2652 15 25 15Z" fill="#332C2B"/>
</svg>
