<svg width="36" height="51" viewBox="0 0 36 51" fill="none" xmlns="http://www.w3.org/2000/svg">
<path d="M18 24.4688C16.6328 24.4688 15.6562 25.543 15.6562 26.8125C15.6562 28.1797 16.6328 29.1562 18 29.1562C19.2695 29.1562 20.3438 28.1797 20.3438 26.8125C20.3438 25.543 19.2695 24.4688 18 24.4688ZM16.3398 21.4414C16.3398 21.832 16.7305 22.125 17.1211 22.125H18.7812C19.1719 22.125 19.5625 21.832 19.5625 21.4414L20.2461 10.5039C20.2461 10.0156 19.9531 9.625 19.4648 9.625H16.4375C15.9492 9.625 15.6562 10.0156 15.6562 10.5039L16.3398 21.4414ZM18 0.25C7.94141 0.25 0.714844 8.45312 0.8125 17.5352C0.8125 21.832 2.375 25.7383 5.01172 28.7656C7.55078 31.6953 9.89453 36.2852 10.1875 37.75V45.1719C10.1875 45.4648 10.2852 45.7578 10.3828 46.0508L12.8242 49.5664C13.1172 50.0547 13.6055 50.25 14.0938 50.25H21.8086C22.2969 50.25 22.7852 50.0547 23.0781 49.5664L25.5195 46.0508C25.6172 45.7578 25.7148 45.4648 25.7148 45.1719L25.8125 37.75C26.0078 36.2852 28.3516 31.5977 30.8906 28.7656C33.5273 25.7383 35.1875 21.832 35.1875 17.4375C35.1875 7.96484 27.4727 0.25 18 0.25ZM22.5898 44.6836L20.9297 47.125H14.9727L13.3125 44.6836V44H22.5898V44.6836ZM22.5898 40.875H13.3125L13.2148 37.75H22.6875L22.5898 40.875ZM28.5469 26.7148C27.1797 28.2773 25.0312 31.4023 23.5664 34.625H12.3359C10.8711 31.4023 8.72266 28.2773 7.35547 26.7148C5.10938 24.1758 3.9375 20.8555 3.9375 17.4375C3.83984 10.0156 9.79688 3.375 18 3.375C25.7148 3.375 32.0625 9.72266 32.0625 17.4375C32.0625 20.8555 30.793 24.1758 28.5469 26.7148Z" fill="#6E293C"/>
</svg>
