<svg width="64" height="64" viewBox="0 0 64 64" fill="none" xmlns="http://www.w3.org/2000/svg">
<path d="M52 55H46V63H52V55Z" fill="#FFF2B2"/>
<path d="M44 55H38V63H44V55Z" fill="#FFF2B2"/>
<path d="M36 21H30V29H36V21Z" fill="#FFF2B2"/>
<path d="M36 55H30V63H36V55Z" fill="#FFF2B2"/>
<path d="M28 21H23C22.2044 21 21.4413 21.3161 20.8787 21.8787C20.3161 22.4413 20 23.2044 20 24V29H28V21Z" fill="#FFF2B2"/>
<path d="M54 63H59C59.7956 63 60.5587 62.6839 61.1213 62.1213C61.6839 61.5587 62 60.7956 62 60V55H54V63Z" fill="#FFF2B2"/>
<path d="M20 60C20 60.7956 20.3161 61.5587 20.8787 62.1213C21.4413 62.6839 22.2044 63 23 63H28V55H20V60Z" fill="#FFF2B2"/>
<path d="M52 21H46V29H52V21Z" fill="#FFF2B2"/>
<path d="M59 21H54V29H62V24C62 23.2044 61.6839 22.4413 61.1213 21.8787C60.5587 21.3161 59.7956 21 59 21Z" fill="#FFF2B2"/>
<path d="M44 21H38V29H44V21Z" fill="#FFF2B2"/>
<path d="M20 53H62V31H20V53ZM34.94 36.73C34.9411 36.555 34.988 36.3833 35.0762 36.2321C35.1644 36.0809 35.2908 35.9555 35.4426 35.8685C35.5944 35.7814 35.7665 35.7357 35.9415 35.736C36.1165 35.7363 36.2884 35.7825 36.44 35.87L45.56 41.13C45.7139 41.2172 45.8419 41.3437 45.931 41.4965C46.02 41.6494 46.0669 41.8231 46.0669 42C46.0669 42.1769 46.02 42.3506 45.931 42.5035C45.8419 42.6563 45.7139 42.7828 45.56 42.87L36.44 48.13C36.2884 48.2175 36.1165 48.2637 35.9415 48.264C35.7665 48.2642 35.5944 48.2186 35.4426 48.1315C35.2908 48.0445 35.1644 47.9191 35.0762 47.7679C34.988 47.6167 34.9411 47.445 34.94 47.27V36.73Z" fill="#FFF2B2"/>
<path d="M50.4 3.15C49.916 2.89435 49.3713 2.77598 48.8249 2.80771C48.2785 2.83944 47.7511 3.02005 47.3 3.33L36 11.1V4C36 3.20435 35.6839 2.44129 35.1213 1.87868C34.5587 1.31607 33.7956 1 33 1H5C4.20435 1 3.44129 1.31607 2.87868 1.87868C2.31607 2.44129 2 3.20435 2 4V32C2 32.7956 2.31607 33.5587 2.87868 34.1213C3.44129 34.6839 4.20435 35 5 35H33C33.7956 35 34.5587 34.6839 35.1213 34.1213C35.6839 33.5587 36 32.7956 36 32V24.9L47.3 32.67C47.7503 32.9797 48.2767 33.1605 48.8222 33.1929C49.3678 33.2253 49.9118 33.108 50.3956 32.8538C50.8794 32.5995 51.2845 32.218 51.5673 31.7503C51.85 31.2826 51.9997 30.7465 52 30.2V5.8C51.9994 5.25457 51.8501 4.71962 51.5682 4.25269C51.2863 3.78577 50.8824 3.40453 50.4 3.15V3.15ZM34 32C34 32.2652 33.8946 32.5196 33.7071 32.7071C33.5196 32.8946 33.2652 33 33 33H5C4.73478 33 4.48043 32.8946 4.29289 32.7071C4.10536 32.5196 4 32.2652 4 32V4C4 3.73478 4.10536 3.48043 4.29289 3.29289C4.48043 3.10536 4.73478 3 5 3H33C33.2652 3 33.5196 3.10536 33.7071 3.29289C33.8946 3.48043 34 3.73478 34 4V32ZM50 30.2C49.9997 30.3824 49.9495 30.5613 49.8548 30.7173C49.7602 30.8732 49.6247 31.0003 49.463 31.0847C49.3012 31.1692 49.1195 31.2078 48.9375 31.1964C48.7554 31.185 48.5799 31.124 48.43 31.02L36 22.47V13.53L48.43 5C48.5785 4.89692 48.7522 4.83602 48.9325 4.82378C49.1129 4.81154 49.2932 4.84842 49.4542 4.93049C49.6153 5.01256 49.7511 5.13676 49.8472 5.28987C49.9433 5.44298 49.9961 5.61927 50 5.8V30.2Z" fill="#332C2B"/>
<path d="M19 9C17.22 9 15.4799 9.52784 13.9999 10.5168C12.5198 11.5057 11.3663 12.9113 10.6851 14.5558C10.0039 16.2004 9.82567 18.01 10.1729 19.7558C10.5202 21.5016 11.3774 23.1053 12.636 24.364C13.8947 25.6226 15.4984 26.4798 17.2442 26.8271C18.99 27.1743 20.7996 26.9961 22.4442 26.3149C24.0887 25.6337 25.4943 24.4802 26.4832 23.0001C27.4722 21.5201 28 19.78 28 18C28 15.6131 27.0518 13.3239 25.364 11.636C23.6761 9.94821 21.387 9 19 9ZM19 25C17.6155 25 16.2622 24.5895 15.111 23.8203C13.9599 23.0511 13.0627 21.9579 12.5328 20.6788C12.003 19.3997 11.8644 17.9922 12.1345 16.6344C12.4046 15.2765 13.0713 14.0292 14.0503 13.0503C15.0292 12.0713 16.2765 11.4046 17.6344 11.1345C18.9922 10.8644 20.3997 11.003 21.6788 11.5328C22.9579 12.0627 24.0511 12.9599 24.8203 14.111C25.5895 15.2622 26 16.6155 26 18C26 19.8565 25.2625 21.637 23.9498 22.9497C22.637 24.2625 20.8565 25 19 25Z" fill="#332C2B"/>
</svg>
