<svg width="50" height="49" viewBox="0 0 50 49" fill="none" xmlns="http://www.w3.org/2000/svg">
<path d="M25 0.03125C29.2969 0.03125 33.3984 1.20312 37.1094 3.35156C40.8203 5.5 43.75 8.42969 45.8984 12.1406C48.0469 15.8516 49.2188 19.9531 49.2188 24.25C49.2188 28.6445 48.0469 32.6484 45.8984 36.3594C43.75 40.0703 40.8203 43.0977 37.1094 45.2461C33.3984 47.3945 29.2969 48.4688 25 48.4688C20.6055 48.4688 16.6016 47.3945 12.8906 45.2461C9.17969 43.0977 6.15234 40.0703 4.00391 36.3594C1.85547 32.6484 0.78125 28.6445 0.78125 24.25C0.78125 19.9531 1.85547 15.8516 4.00391 12.1406C6.15234 8.42969 9.17969 5.5 12.8906 3.35156C16.6016 1.20312 20.6055 0.03125 25 0.03125ZM46.0938 24.25C46.0938 20.4414 45.1172 16.9258 43.2617 13.7031C41.3086 10.4805 38.7695 7.94141 35.5469 5.98828C32.2266 4.13281 28.7109 3.15625 24.9023 3.15625C21.0938 3.15625 17.5781 4.13281 14.3555 5.98828C11.1328 7.94141 8.59375 10.4805 6.73828 13.7031C4.78516 17.0234 3.90625 20.5391 3.90625 24.3477C3.90625 28.1562 4.78516 31.6719 6.73828 34.8945C8.59375 38.1172 11.1328 40.6562 14.4531 42.5117C17.6758 44.4648 21.1914 45.3438 25 45.3438C28.8086 45.3438 32.3242 44.4648 35.5469 42.5117C38.7695 40.6562 41.3086 38.1172 43.2617 34.7969C45.1172 31.5742 46.0938 28.0586 46.0938 24.25ZM31.543 32.8438C31.7383 33.0391 32.0312 33.1367 32.4219 33.1367C32.7148 33.1367 33.0078 32.9414 33.2031 32.6484L33.9844 31.4766C34.1797 31.2812 34.1797 30.9883 34.1797 30.6953C34.1797 30.4023 33.9844 30.1094 33.7891 29.9141L26.8555 24.8359V10.5781C26.8555 10.2852 26.6602 9.99219 26.4648 9.79688C26.2695 9.60156 25.9766 9.40625 25.6836 9.40625H24.3164C23.9258 9.40625 23.6328 9.60156 23.4375 9.79688C23.2422 9.99219 23.1445 10.2852 23.1445 10.5781V26.2031C23.1445 26.5938 23.2422 26.8867 23.6328 27.082L31.543 32.8438Z" fill="#6E293C"/>
</svg>
