<svg width="64" height="64" viewBox="0 0 64 64" fill="none" xmlns="http://www.w3.org/2000/svg">
<g clip-path="url(#clip0_403_7989)">
<path d="M37.7054 45.0684C35.0153 43.6449 32.0733 44.4883 29.9076 47.1866C27.7398 44.4883 24.7988 43.6459 22.1098 45.0674C21.0372 45.6457 20.1432 46.5063 19.5246 47.5562C18.9059 48.606 18.5862 49.805 18.6 51.0235V51.9112C18.6 56.6359 23.3175 61.8095 29.571 63.9443C29.7875 64.0183 30.0225 64.0183 30.2389 63.9443C36.4924 61.8095 41.2099 56.6359 41.2099 51.9112V51.0235C41.2243 49.8057 40.9053 48.6071 40.2876 47.5575C39.6699 46.5079 38.777 45.6471 37.7054 45.0684ZM30.2833 61.729C30.0282 61.8285 29.7439 61.8226 29.4931 61.7126C29.2423 61.6025 29.0455 61.3973 28.946 61.1422C28.8465 60.887 28.8524 60.6028 28.9625 60.352C29.0725 60.1012 29.2777 59.9044 29.5329 59.8049C34.1967 57.9902 37.0829 54.2926 37.0829 51.9081C37.0829 51.6344 37.1917 51.3718 37.3853 51.1782C37.5788 50.9846 37.8414 50.8759 38.1152 50.8759C38.389 50.8759 38.6515 50.9846 38.8451 51.1782C39.0387 51.3718 39.1475 51.6344 39.1475 51.9081C39.1475 54.9987 36.0403 59.4901 30.2833 61.729Z" fill="#FFF2B2"/>
<path d="M61.1757 20.6452C60.1559 18.2012 58.4358 16.1136 56.232 14.6452C54.0282 13.1768 51.4392 12.3933 48.791 12.3933C46.1427 12.3933 43.5537 13.1768 41.3499 14.6452C39.1461 16.1136 37.426 18.2012 36.4062 20.6452H61.1757Z" fill="#FFF2B2"/>
<path d="M35.7474 22.7097C35.2699 24.6835 35.2465 26.7398 35.6791 28.7239C36.1117 30.708 36.989 32.568 38.2448 34.1638C39.5006 35.7596 41.1022 37.0496 42.929 37.9366C44.7557 38.8236 46.7599 39.2845 48.7907 39.2845C50.8214 39.2845 52.8256 38.8236 54.6523 37.9366C56.4791 37.0496 58.0807 35.7596 59.3365 34.1638C60.5923 32.568 61.4696 30.708 61.9022 28.7239C62.3348 26.7398 62.3115 24.6835 61.834 22.7097H35.7474Z" fill="#FFF2B2"/>
<path d="M60.9044 37.1614H59.2827C56.4335 39.8156 52.6842 41.2914 48.7902 41.2914C44.8962 41.2914 41.1468 39.8156 38.2976 37.1614H36.678C36.239 37.1615 35.805 37.255 35.4048 37.4356C35.0047 37.6162 34.6475 37.8798 34.357 38.209C34.0665 38.5381 33.8493 38.9253 33.7198 39.3448C33.5903 39.7643 33.5515 40.2065 33.6059 40.6422L33.8289 42.4269C34.2328 42.359 34.6416 42.3245 35.0511 42.3237C36.3163 42.3304 37.5602 42.6495 38.6723 43.2527C40.0766 44.0059 41.248 45.1289 42.0597 46.5001C42.8714 47.8713 43.2925 49.4385 43.2773 51.0318V51.9196C43.2773 55.8535 40.7596 59.8927 36.8184 62.813C37.1083 63.1831 37.4787 63.4824 37.9016 63.6881C38.3244 63.8937 38.7885 64.0005 39.2587 64.0001H58.3237C59.0784 63.9999 59.807 63.7241 60.3727 63.2246C60.9384 62.725 61.3022 62.0361 61.3958 61.2873L63.9765 40.6422C64.0309 40.2065 63.9921 39.7643 63.8626 39.3448C63.7331 38.9253 63.5159 38.5381 63.2254 38.209C62.9349 37.8798 62.5777 37.6162 62.1776 37.4356C61.7774 37.255 61.3434 37.1615 60.9044 37.1614Z" fill="#FFF2B2"/>
<path d="M24.7746 12.3871C24.7746 9.93717 24.0481 7.54225 22.6869 5.5052C21.3258 3.46815 19.3912 1.88047 17.1277 0.942917C14.8642 0.00536716 12.3736 -0.239939 9.97065 0.23802C7.56775 0.715979 5.36055 1.89574 3.62816 3.6281C1.89576 5.36047 0.71599 7.56764 0.238024 9.9705C-0.239942 12.3734 0.00536724 14.864 0.942932 17.1274C1.8805 19.3909 3.46821 21.3255 5.50528 22.6866C7.54236 24.0477 9.93732 24.7742 12.3873 24.7742C15.6715 24.7706 18.8202 23.4644 21.1425 21.1422C23.4648 18.8199 24.771 15.6713 24.7746 12.3871ZM12.3873 22.7097C9.91101 22.7098 7.51812 21.815 5.64964 20.1899C6.15566 18.81 7.07318 17.6188 8.27818 16.7772C9.48317 15.9356 10.9175 15.4843 12.3873 15.4843C13.8571 15.4843 15.2914 15.9356 16.4964 16.7772C17.7014 17.6188 18.6189 18.81 19.1249 20.1899C17.2565 21.815 14.8636 22.7098 12.3873 22.7097ZM9.29047 10.3226C9.29047 9.7101 9.4721 9.11137 9.81238 8.60211C10.1527 8.09285 10.6363 7.69593 11.2022 7.46154C11.7681 7.22715 12.3907 7.16583 12.9915 7.28532C13.5922 7.4048 14.144 7.69974 14.5771 8.13284C15.0102 8.56593 15.3051 9.11772 15.4246 9.71844C15.5441 10.3192 15.4828 10.9418 15.2484 11.5077C15.014 12.0735 14.6171 12.5572 14.1078 12.8975C13.5985 13.2377 12.9998 13.4194 12.3873 13.4194C11.566 13.4194 10.7783 13.0931 10.1975 12.5123C9.61674 11.9316 9.29047 11.1439 9.29047 10.3226ZM15.8671 14.1089C16.6358 13.4072 17.1744 12.4895 17.4122 11.4762C17.65 10.4629 17.5758 9.40134 17.1995 8.43093C16.8232 7.46052 16.1622 6.62655 15.3034 6.03849C14.4447 5.45043 13.4281 5.13575 12.3873 5.13575C11.3465 5.13575 10.3299 5.45043 9.47114 6.03849C8.61235 6.62655 7.95142 7.46052 7.5751 8.43093C7.19877 9.40134 7.12463 10.4629 7.36241 11.4762C7.6002 12.4895 8.13879 13.4072 8.9075 14.1089C6.82933 14.9579 5.12619 16.5266 4.10949 18.528C3.13632 17.2169 2.48826 15.6935 2.2186 14.0831C1.94894 12.4728 2.06539 10.8214 2.55836 9.26475C3.05133 7.70814 3.90675 6.29078 5.05428 5.1292C6.20181 3.96762 7.60867 3.09501 9.15918 2.58311C10.7097 2.07122 12.3596 1.93466 13.9731 2.18467C15.5867 2.43468 17.1179 3.06412 18.4408 4.02123C19.7637 4.97833 20.8405 6.23577 21.5827 7.69015C22.3249 9.14453 22.7113 10.7543 22.71 12.3871C22.7095 14.6012 21.9921 16.7556 20.6651 18.528C19.6484 16.5266 17.9453 14.9579 15.8671 14.1089Z" fill="#332C2B"/>
<path d="M39.2271 0C36.7772 0 34.3822 0.72649 32.3451 2.0876C30.308 3.44871 28.7203 5.38331 27.7828 7.64676C26.8452 9.91021 26.5999 12.4008 27.0779 14.8037C27.5558 17.2066 28.7356 19.4137 30.468 21.1461C32.2004 22.8785 34.4076 24.0582 36.8105 24.5362C39.2134 25.0141 41.7041 24.7688 43.9675 23.8313C46.231 22.8937 48.1657 21.306 49.5268 19.269C50.8879 17.232 51.6144 14.837 51.6144 12.3871C51.6109 9.10292 50.3046 5.95428 47.9823 3.63202C45.66 1.30976 42.5114 0.00355208 39.2271 0ZM39.2271 22.7097C36.7509 22.7098 34.358 21.815 32.4895 20.1899C32.9955 18.81 33.913 17.6188 35.118 16.7772C36.323 15.9356 37.7574 15.4843 39.2271 15.4843C40.6969 15.4843 42.1313 15.9356 43.3363 16.7772C44.5412 17.6188 45.4588 18.81 45.9648 20.1899C44.0963 21.815 41.7034 22.7098 39.2271 22.7097ZM36.1303 10.3226C36.1303 9.7101 36.3119 9.11137 36.6522 8.60211C36.9925 8.09284 37.4762 7.69592 38.042 7.46153C38.6079 7.22715 39.2306 7.16582 39.8313 7.28531C40.432 7.4048 40.9838 7.69974 41.4169 8.13283C41.85 8.56592 42.145 9.11771 42.2645 9.71843C42.3839 10.3191 42.3226 10.9418 42.0882 11.5077C41.8538 12.0735 41.4569 12.5572 40.9476 12.8975C40.4384 13.2377 39.8396 13.4194 39.2271 13.4194C38.4058 13.4194 37.6181 13.0931 37.0374 12.5123C36.4566 11.9316 36.1303 11.1439 36.1303 10.3226ZM47.5049 18.528C46.4882 16.5266 44.7851 14.9579 42.7069 14.1089C43.4756 13.4072 44.0142 12.4894 44.252 11.4761C44.4898 10.4628 44.4157 9.40133 44.0393 8.43092C43.663 7.46051 43.0021 6.62655 42.1433 6.03849C41.2845 5.45043 40.268 5.13575 39.2271 5.13575C38.1863 5.13575 37.1698 5.45043 36.311 6.03849C35.4522 6.62655 34.7913 7.46051 34.4149 8.43092C34.0386 9.40133 33.9645 10.4628 34.2023 11.4761C34.44 12.4894 34.9786 13.4072 35.7473 14.1089C33.6692 14.9579 31.966 16.5266 30.9493 18.528C29.8056 16.993 29.1113 15.1702 28.9439 13.2632C28.7766 11.3563 29.1427 9.44044 30.0015 7.72965C30.8603 6.01886 32.1779 4.58056 33.8071 3.57547C35.4363 2.57039 37.3129 2.03811 39.2271 2.03811C41.1414 2.03811 43.018 2.57039 44.6472 3.57547C46.2763 4.58056 47.5939 6.01886 48.4527 7.72965C49.3115 9.44044 49.6777 11.3563 49.5103 13.2632C49.343 15.1702 48.6486 16.993 47.5049 18.528Z" fill="#332C2B"/>
<path d="M25.8053 23.7419C23.3553 23.7419 20.9603 24.4684 18.9233 25.8295C16.8862 27.1907 15.2985 29.1253 14.3609 31.3887C13.4233 33.6521 13.178 36.1428 13.656 38.5456C14.134 40.9485 15.3137 43.1557 17.0461 44.888C18.7785 46.6204 20.9857 47.8002 23.3886 48.2781C25.7915 48.7561 28.2822 48.5108 30.5457 47.5732C32.8092 46.6357 34.7438 45.048 36.1049 43.0109C37.466 40.9739 38.1925 38.579 38.1925 36.129C38.189 32.8449 36.8828 29.6962 34.5605 27.374C32.2382 25.0517 29.0895 23.7455 25.8053 23.7419ZM25.8053 46.4516C23.329 46.4518 20.9361 45.5569 19.0676 43.9319C19.5736 42.552 20.4912 41.3607 21.6961 40.5191C22.9011 39.6776 24.3355 39.2263 25.8053 39.2263C27.275 39.2263 28.7094 39.6776 29.9144 40.5191C31.1194 41.3607 32.0369 42.552 32.5429 43.9319C30.6744 45.5569 28.2815 46.4518 25.8053 46.4516ZM22.7084 34.0645C22.7084 33.452 22.8901 32.8533 23.2303 32.344C23.5706 31.8348 24.0543 31.4379 24.6202 31.2035C25.186 30.9691 25.8087 30.9078 26.4094 31.0273C27.0101 31.1467 27.5619 31.4417 27.995 31.8748C28.4281 32.3079 28.7231 32.8597 28.8426 33.4604C28.9621 34.0611 28.9007 34.6837 28.6664 35.2496C28.432 35.8155 28.035 36.2991 27.5258 36.6394C27.0165 36.9797 26.4178 37.1613 25.8053 37.1613C24.9839 37.1613 24.1962 36.835 23.6155 36.2543C23.0347 35.6735 22.7084 34.8858 22.7084 34.0645ZM34.0831 42.2699C33.0661 40.2687 31.3631 38.7001 29.2851 37.8508C30.0538 37.1491 30.5924 36.2314 30.8301 35.2181C31.0679 34.2048 30.9938 33.1433 30.6175 32.1729C30.2411 31.2025 29.5802 30.3685 28.7214 29.7804C27.8626 29.1924 26.8461 28.8777 25.8053 28.8777C24.7644 28.8777 23.7479 29.1924 22.8891 29.7804C22.0303 30.3685 21.3694 31.2025 20.9931 32.1729C20.6167 33.1433 20.5426 34.2048 20.7804 35.2181C21.0182 36.2314 21.5568 37.1491 22.3255 37.8508C20.2475 38.7001 18.5444 40.2687 17.5275 42.2699C16.3838 40.7349 15.6894 38.9121 15.5221 37.0052C15.3547 35.0983 15.7209 33.1824 16.5797 31.4716C17.4385 29.7608 18.7561 28.3225 20.3852 27.3174C22.0144 26.3123 23.891 25.7801 25.8053 25.7801C27.7195 25.7801 29.5961 26.3123 31.2253 27.3174C32.8545 28.3225 34.1721 29.7608 35.0309 31.4716C35.8897 33.1824 36.2558 35.0983 36.0885 37.0052C35.9211 38.9121 35.2268 40.7349 34.0831 42.2699Z" fill="#332C2B"/>
</g>
<defs>
<clipPath id="clip0_403_7989">
<rect width="64" height="64" fill="white"/>
</clipPath>
</defs>
</svg>
