<svg width="18" height="10" viewBox="0 0 18 10" fill="none" xmlns="http://www.w3.org/2000/svg">
<path d="M11.25 1.25H13.5C13.9925 1.25 14.4801 1.347 14.9351 1.53545C15.39 1.72391 15.8034 2.00013 16.1517 2.34835C16.4999 2.69657 16.7761 3.10997 16.9645 3.56494C17.153 4.01991 17.25 4.50754 17.25 5C17.25 5.49246 17.153 5.98009 16.9645 6.43506C16.7761 6.89003 16.4999 7.30343 16.1517 7.65165C15.8034 7.99987 15.39 8.27609 14.9351 8.46455C14.4801 8.653 13.9925 8.75 13.5 8.75H11.25M6.75 8.75H4.5C4.00754 8.75 3.51991 8.653 3.06494 8.46455C2.60997 8.27609 2.19657 7.99987 1.84835 7.65165C1.14509 6.94839 0.75 5.99456 0.75 5C0.75 4.00544 1.14509 3.05161 1.84835 2.34835C2.55161 1.64509 3.50544 1.25 4.5 1.25H6.75M6 5H12" stroke="#6D40FE" stroke-width="1.5" stroke-linecap="round" stroke-linejoin="round"/>
</svg>
