<svg width="50" height="49" viewBox="0 0 50 49" fill="none" xmlns="http://www.w3.org/2000/svg">
<path d="M25 3.15625C21.0938 3.15625 17.5781 4.13281 14.3555 5.98828C11.1328 7.94141 8.59375 10.4805 6.73828 13.7031C4.78516 16.9258 3.90625 20.4414 3.90625 24.25C3.90625 28.1562 4.78516 31.6719 6.73828 34.8945C8.59375 38.1172 11.1328 40.6562 14.3555 42.5117C17.5781 44.4648 21.0938 45.3438 25 45.3438C28.8086 45.3438 32.3242 44.4648 35.5469 42.5117C38.7695 40.6562 41.3086 38.1172 43.2617 34.8945C45.1172 31.6719 46.0938 28.1562 46.0938 24.25C46.0938 20.4414 45.1172 16.9258 43.2617 13.7031C41.3086 10.4805 38.7695 7.94141 35.5469 5.98828C32.2266 4.13281 28.7109 3.15625 25 3.15625ZM25 0.03125C29.2969 0.03125 33.3984 1.20312 37.1094 3.35156C40.8203 5.5 43.75 8.42969 45.8984 12.1406C48.0469 15.8516 49.2188 19.9531 49.2188 24.25C49.2188 28.6445 48.0469 32.6484 45.8984 36.3594C43.75 40.0703 40.8203 43.0977 37.1094 45.2461C33.3984 47.3945 29.2969 48.4688 25 48.4688C20.6055 48.4688 16.6016 47.3945 12.8906 45.2461C9.17969 43.0977 6.15234 40.0703 4.00391 36.3594C1.85547 32.6484 0.78125 28.6445 0.78125 24.25C0.78125 19.9531 1.85547 15.8516 4.00391 12.1406C6.15234 8.42969 9.17969 5.5 12.8906 3.35156C16.6016 1.20312 20.6055 0.03125 25 0.03125ZM21.4844 33.625C21.0938 33.625 20.8008 33.8203 20.6055 34.0156C20.4102 34.2109 20.3125 34.5039 20.3125 34.7969V35.5781C20.3125 35.9688 20.4102 36.2617 20.6055 36.457C20.8008 36.6523 21.0938 36.75 21.4844 36.75H28.5156C28.8086 36.75 29.1016 36.6523 29.2969 36.457C29.4922 36.2617 29.6875 35.9688 29.6875 35.5781V34.7969C29.6875 34.5039 29.4922 34.2109 29.2969 34.0156C29.1016 33.8203 28.8086 33.625 28.5156 33.625H27.3438V19.9531C27.3438 19.6602 27.1484 19.3672 26.9531 19.1719C26.7578 18.9766 26.4648 18.7812 26.1719 18.7812H21.4844C21.0938 18.7812 20.8008 18.9766 20.6055 19.1719C20.4102 19.3672 20.3125 19.6602 20.3125 19.9531V20.7344C20.3125 21.125 20.4102 21.418 20.6055 21.6133C20.8008 21.8086 21.0938 21.9062 21.4844 21.9062H22.6562V33.625H21.4844ZM25 10.1875C25.7812 10.1875 26.5625 10.5781 27.1484 11.1641C27.7344 11.75 28.125 12.5312 28.125 13.3125C28.125 14.1914 27.7344 14.9727 27.1484 15.5586C26.5625 16.1445 25.7812 16.4375 25 16.4375C24.1211 16.4375 23.3398 16.1445 22.7539 15.5586C22.168 14.9727 21.875 14.1914 21.875 13.3125C21.875 12.5312 22.168 11.75 22.7539 11.1641C23.3398 10.5781 24.1211 10.1875 25 10.1875Z" fill="#6E293C"/>
</svg>
