<svg width="64" height="64" viewBox="0 0 64 64" fill="none" xmlns="http://www.w3.org/2000/svg">
<path d="M13.6201 28.49C13.4343 28.5663 13.2758 28.6967 13.1652 28.8644C13.0546 29.0321 12.9971 29.2291 13.0001 29.43V62C12.9976 62.1681 13.0376 62.3341 13.1162 62.4826C13.1949 62.6312 13.3097 62.7575 13.4501 62.85C13.5861 62.9396 13.7419 62.9946 13.904 63.0103C14.066 63.026 14.2295 63.0018 14.3801 62.94C21.5955 59.8964 29.7166 59.8031 37.0001 62.68V28C29.4257 25.1979 21.0704 25.373 13.6201 28.49Z" fill="#FFF2B2"/>
<path d="M62.38 28.4899C60.3279 27.6243 58.189 26.9806 56 26.5699V34.5699L54 32.5699L52 34.5699V26.0599C47.5792 25.8024 43.153 26.4629 39 27.9999V62.6799C46.2809 59.7967 54.4019 59.8828 61.62 62.9199C61.7706 62.9818 61.9341 63.0059 62.0962 62.9902C62.2582 62.9745 62.414 62.9195 62.55 62.8299C62.6876 62.7393 62.8006 62.6162 62.8791 62.4714C62.9576 62.3266 62.9991 62.1646 63 61.9999V29.4299C63.003 29.2291 62.9455 29.032 62.8349 28.8643C62.7243 28.6967 62.5658 28.5662 62.38 28.4899Z" fill="#FFF2B2"/>
<path d="M50 42H49V16H50C50.2652 16 50.5196 15.8946 50.7071 15.7071C50.8946 15.5196 51 15.2652 51 15C51 14.7348 50.8946 14.4804 50.7071 14.2929C50.5196 14.1054 50.2652 14 50 14H36.24L27 9.38V9H34C34.1801 8.99907 34.3566 8.94953 34.5108 8.85661C34.6651 8.76369 34.7914 8.63083 34.8764 8.47208C34.9614 8.31332 35.002 8.13455 34.9938 7.95465C34.9856 7.77475 34.9291 7.6004 34.83 7.45L33.2 5L34.83 2.55C34.9291 2.3996 34.9856 2.22525 34.9938 2.04535C35.002 1.86545 34.9614 1.68668 34.8764 1.52792C34.7914 1.36917 34.6651 1.23631 34.5108 1.14339C34.3566 1.05047 34.1801 1.00093 34 1H26C25.7348 1 25.4804 1.10536 25.2929 1.29289C25.1054 1.48043 25 1.73478 25 2V9.38L15.76 14H2C1.73478 14 1.48043 14.1054 1.29289 14.2929C1.10536 14.4804 1 14.7348 1 15C1 15.2652 1.10536 15.5196 1.29289 15.7071C1.48043 15.8946 1.73478 16 2 16H3V42H2C1.73478 42 1.48043 42.1054 1.29289 42.2929C1.10536 42.4804 1 42.7348 1 43C1 43.2652 1.10536 43.5196 1.29289 43.7071C1.48043 43.8946 1.73478 44 2 44H50C50.2652 44 50.5196 43.8946 50.7071 43.7071C50.8946 43.5196 51 43.2652 51 43C51 42.7348 50.8946 42.4804 50.7071 42.2929C50.5196 42.1054 50.2652 42 50 42ZM31.17 5.55L32.17 7H27V3H32.13L31.13 4.45C31.0283 4.61716 30.9779 4.81047 30.985 5.006C30.9921 5.20152 31.0565 5.39067 31.17 5.55ZM5 16H15V42H5V16ZM17 15.62L26 11.12L35 15.62V42H31V35C31 34.2043 30.6839 33.4413 30.1213 32.8787C29.5587 32.3161 28.7957 32 28 32H24C23.2044 32 22.4413 32.3161 21.8787 32.8787C21.3161 33.4413 21 34.2043 21 35V42H17V15.62ZM23 42V35C23 34.7348 23.1054 34.4804 23.2929 34.2929C23.4804 34.1054 23.7348 34 24 34H28C28.2652 34 28.5196 34.1054 28.7071 34.2929C28.8946 34.4804 29 34.7348 29 35V42H23ZM37 42V16H47V42H37Z" fill="#332C2B"/>
<path d="M26 26C26.7911 26 27.5645 25.7654 28.2223 25.3259C28.8801 24.8864 29.3928 24.2616 29.6955 23.5307C29.9983 22.7998 30.0775 21.9956 29.9231 21.2196C29.7688 20.4437 29.3878 19.731 28.8284 19.1716C28.269 18.6122 27.5563 18.2312 26.7804 18.0769C26.0044 17.9225 25.2002 18.0017 24.4693 18.3045C23.7384 18.6072 23.1136 19.1199 22.6741 19.7777C22.2346 20.4355 22 21.2089 22 22C22 23.0609 22.4214 24.0783 23.1716 24.8284C23.9217 25.5786 24.9391 26 26 26ZM26 20C26.3956 20 26.7822 20.1173 27.1111 20.3371C27.44 20.5568 27.6964 20.8692 27.8478 21.2346C27.9991 21.6001 28.0387 22.0022 27.9616 22.3902C27.8844 22.7781 27.6939 23.1345 27.4142 23.4142C27.1345 23.6939 26.7781 23.8844 26.3902 23.9616C26.0022 24.0387 25.6001 23.9991 25.2346 23.8478C24.8692 23.6964 24.5568 23.44 24.3371 23.1111C24.1173 22.7822 24 22.3956 24 22C24 21.4696 24.2107 20.9609 24.5858 20.5858C24.9609 20.2107 25.4696 20 26 20Z" fill="#332C2B"/>
<path d="M12 20H8C7.73478 20 7.48043 20.1054 7.29289 20.2929C7.10536 20.4804 7 20.7348 7 21C7 21.2652 7.10536 21.5196 7.29289 21.7071C7.48043 21.8946 7.73478 22 8 22H12C12.2652 22 12.5196 21.8946 12.7071 21.7071C12.8946 21.5196 13 21.2652 13 21C13 20.7348 12.8946 20.4804 12.7071 20.2929C12.5196 20.1054 12.2652 20 12 20Z" fill="#332C2B"/>
<path d="M12 28H8C7.73478 28 7.48043 28.1054 7.29289 28.2929C7.10536 28.4804 7 28.7348 7 29C7 29.2652 7.10536 29.5196 7.29289 29.7071C7.48043 29.8946 7.73478 30 8 30H12C12.2652 30 12.5196 29.8946 12.7071 29.7071C12.8946 29.5196 13 29.2652 13 29C13 28.7348 12.8946 28.4804 12.7071 28.2929C12.5196 28.1054 12.2652 28 12 28Z" fill="#332C2B"/>
<path d="M12 36H8C7.73478 36 7.48043 36.1054 7.29289 36.2929C7.10536 36.4804 7 36.7348 7 37C7 37.2652 7.10536 37.5196 7.29289 37.7071C7.48043 37.8946 7.73478 38 8 38H12C12.2652 38 12.5196 37.8946 12.7071 37.7071C12.8946 37.5196 13 37.2652 13 37C13 36.7348 12.8946 36.4804 12.7071 36.2929C12.5196 36.1054 12.2652 36 12 36Z" fill="#332C2B"/>
<path d="M44 20H40C39.7348 20 39.4804 20.1054 39.2929 20.2929C39.1054 20.4804 39 20.7348 39 21C39 21.2652 39.1054 21.5196 39.2929 21.7071C39.4804 21.8946 39.7348 22 40 22H44C44.2652 22 44.5196 21.8946 44.7071 21.7071C44.8946 21.5196 45 21.2652 45 21C45 20.7348 44.8946 20.4804 44.7071 20.2929C44.5196 20.1054 44.2652 20 44 20Z" fill="#332C2B"/>
<path d="M44 28H40C39.7348 28 39.4804 28.1054 39.2929 28.2929C39.1054 28.4804 39 28.7348 39 29C39 29.2652 39.1054 29.5196 39.2929 29.7071C39.4804 29.8946 39.7348 30 40 30H44C44.2652 30 44.5196 29.8946 44.7071 29.7071C44.8946 29.5196 45 29.2652 45 29C45 28.7348 44.8946 28.4804 44.7071 28.2929C44.5196 28.1054 44.2652 28 44 28Z" fill="#332C2B"/>
<path d="M44 36H40C39.7348 36 39.4804 36.1054 39.2929 36.2929C39.1054 36.4804 39 36.7348 39 37C39 37.2652 39.1054 37.5196 39.2929 37.7071C39.4804 37.8946 39.7348 38 40 38H44C44.2652 38 44.5196 37.8946 44.7071 37.7071C44.8946 37.5196 45 37.2652 45 37C45 36.7348 44.8946 36.4804 44.7071 36.2929C44.5196 36.1054 44.2652 36 44 36Z" fill="#332C2B"/>
</svg>
