<svg width="140" height="115" viewBox="0 0 140 115" fill="none" xmlns="http://www.w3.org/2000/svg">
<path d="M0.794258 8.71024V7.45024H7.80826V8.71024H0.794258ZM3.55226 11.4122V4.65024H5.02226V11.4122H3.55226Z" fill="#6D40FE"/>
<path d="M15.3958 8.71024V7.45024H22.4098V8.71024H15.3958ZM18.1538 11.4122V4.65024H19.6238V11.4122H18.1538Z" fill="#6D40FE"/>
<path d="M29.9935 8.71024V7.45024H37.0075V8.71024H29.9935ZM32.7515 11.4122V4.65024H34.2215V11.4122H32.7515Z" fill="#6D40FE"/>
<path d="M44.595 8.71024V7.45024H51.609V8.71024H44.595ZM47.353 11.4122V4.65024H48.823V11.4122H47.353Z" fill="#6D40FE"/>
<path d="M59.1927 8.71024V7.45024H66.2067V8.71024H59.1927ZM61.9507 11.4122V4.65024H63.4207V11.4122H61.9507Z" fill="#6D40FE"/>
<path d="M73.7943 8.71024V7.45024H80.8083V8.71024H73.7943ZM76.5523 11.4122V4.65024H78.0223V11.4122H76.5523Z" fill="#6D40FE"/>
<path d="M88.3958 8.71024V7.45024H95.4098V8.71024H88.3958ZM91.1538 11.4122V4.65024H92.6238V11.4122H91.1538Z" fill="#6D40FE"/>
<path d="M102.993 8.71024V7.45024H110.007V8.71024H102.993ZM105.751 11.4122V4.65024H107.221V11.4122H105.751Z" fill="#6D40FE"/>
<path d="M117.595 8.71024V7.45024H124.609V8.71024H117.595ZM120.353 11.4122V4.65024H121.823V11.4122H120.353Z" fill="#6D40FE"/>
<path d="M132.193 8.71024V7.45024H139.207V8.71024H132.193ZM134.951 11.4122V4.65024H136.421V11.4122H134.951Z" fill="#6D40FE"/>
<path d="M0.794258 25.8655V24.6055H7.80826V25.8655H0.794258ZM3.55226 28.5675V21.8055H5.02226V28.5675H3.55226Z" fill="#6D40FE"/>
<path d="M15.3958 25.8655V24.6055H22.4098V25.8655H15.3958ZM18.1538 28.5675V21.8055H19.6238V28.5675H18.1538Z" fill="#6D40FE"/>
<path d="M29.9935 25.8655V24.6055H37.0075V25.8655H29.9935ZM32.7515 28.5675V21.8055H34.2215V28.5675H32.7515Z" fill="#6D40FE"/>
<path d="M44.595 25.8655V24.6055H51.609V25.8655H44.595ZM47.353 28.5675V21.8055H48.823V28.5675H47.353Z" fill="#6D40FE"/>
<path d="M59.1927 25.8655V24.6055H66.2067V25.8655H59.1927ZM61.9507 28.5675V21.8055H63.4207V28.5675H61.9507Z" fill="#6D40FE"/>
<path d="M73.7943 25.8655V24.6055H80.8083V25.8655H73.7943ZM76.5523 28.5675V21.8055H78.0223V28.5675H76.5523Z" fill="#6D40FE"/>
<path d="M88.3958 25.8655V24.6055H95.4098V25.8655H88.3958ZM91.1538 28.5675V21.8055H92.6238V28.5675H91.1538Z" fill="#6D40FE"/>
<path d="M102.993 25.8655V24.6055H110.007V25.8655H102.993ZM105.751 28.5675V21.8055H107.221V28.5675H105.751Z" fill="#6D40FE"/>
<path d="M117.595 25.8655V24.6055H124.609V25.8655H117.595ZM120.353 28.5675V21.8055H121.823V28.5675H120.353Z" fill="#6D40FE"/>
<path d="M132.193 25.8655V24.6055H139.207V25.8655H132.193ZM134.951 28.5675V21.8055H136.421V28.5675H134.951Z" fill="#6D40FE"/>
<path d="M0.794258 43.0208V41.7608H7.80826V43.0208H0.794258ZM3.55226 45.7228V38.9608H5.02226V45.7228H3.55226Z" fill="#6D40FE"/>
<path d="M15.3958 43.0208V41.7608H22.4098V43.0208H15.3958ZM18.1538 45.7228V38.9608H19.6238V45.7228H18.1538Z" fill="#6D40FE"/>
<path d="M29.9935 43.0208V41.7608H37.0075V43.0208H29.9935ZM32.7515 45.7228V38.9608H34.2215V45.7228H32.7515Z" fill="#6D40FE"/>
<path d="M44.595 43.0208V41.7608H51.609V43.0208H44.595ZM47.353 45.7228V38.9608H48.823V45.7228H47.353Z" fill="#6D40FE"/>
<path d="M59.1927 43.0208V41.7608H66.2067V43.0208H59.1927ZM61.9507 45.7228V38.9608H63.4207V45.7228H61.9507Z" fill="#6D40FE"/>
<path d="M73.7943 43.0208V41.7608H80.8083V43.0208H73.7943ZM76.5523 45.7228V38.9608H78.0223V45.7228H76.5523Z" fill="#6D40FE"/>
<path d="M88.3958 43.0208V41.7608H95.4098V43.0208H88.3958ZM91.1538 45.7228V38.9608H92.6238V45.7228H91.1538Z" fill="#6D40FE"/>
<path d="M102.993 43.0208V41.7608H110.007V43.0208H102.993ZM105.751 45.7228V38.9608H107.221V45.7228H105.751Z" fill="#6D40FE"/>
<path d="M117.595 43.0208V41.7608H124.609V43.0208H117.595ZM120.353 45.7228V38.9608H121.823V45.7228H120.353Z" fill="#6D40FE"/>
<path d="M132.193 43.0208V41.7608H139.207V43.0208H132.193ZM134.951 45.7228V38.9608H136.421V45.7228H134.951Z" fill="#6D40FE"/>
<path d="M0.794258 60.1761V58.9161H7.80826V60.1761H0.794258ZM3.55226 62.8781V56.1161H5.02226V62.8781H3.55226Z" fill="#6D40FE"/>
<path d="M15.3958 60.1761V58.9161H22.4098V60.1761H15.3958ZM18.1538 62.8781V56.1161H19.6238V62.8781H18.1538Z" fill="#6D40FE"/>
<path d="M29.9935 60.1761V58.9161H37.0075V60.1761H29.9935ZM32.7515 62.8781V56.1161H34.2215V62.8781H32.7515Z" fill="#6D40FE"/>
<path d="M44.595 60.1761V58.9161H51.609V60.1761H44.595ZM47.353 62.8781V56.1161H48.823V62.8781H47.353Z" fill="#6D40FE"/>
<path d="M59.1927 60.1761V58.9161H66.2067V60.1761H59.1927ZM61.9507 62.8781V56.1161H63.4207V62.8781H61.9507Z" fill="#6D40FE"/>
<path d="M73.7943 60.1761V58.9161H80.8083V60.1761H73.7943ZM76.5523 62.8781V56.1161H78.0223V62.8781H76.5523Z" fill="#6D40FE"/>
<path d="M88.3958 60.1761V58.9161H95.4098V60.1761H88.3958ZM91.1538 62.8781V56.1161H92.6238V62.8781H91.1538Z" fill="#6D40FE"/>
<path d="M102.993 60.1761V58.9161H110.007V60.1761H102.993ZM105.751 62.8781V56.1161H107.221V62.8781H105.751Z" fill="#6D40FE"/>
<path d="M117.595 60.1761V58.9161H124.609V60.1761H117.595ZM120.353 62.8781V56.1161H121.823V62.8781H120.353Z" fill="#6D40FE"/>
<path d="M132.193 60.1761V58.9161H139.207V60.1761H132.193ZM134.951 62.8781V56.1161H136.421V62.8781H134.951Z" fill="#6D40FE"/>
<path d="M0.794258 77.3313V76.0713H7.80826V77.3313H0.794258ZM3.55226 80.0333V73.2713H5.02226V80.0333H3.55226Z" fill="#6D40FE"/>
<path d="M15.3958 77.3313V76.0713H22.4098V77.3313H15.3958ZM18.1538 80.0333V73.2713H19.6238V80.0333H18.1538Z" fill="#6D40FE"/>
<path d="M29.9935 77.3313V76.0713H37.0075V77.3313H29.9935ZM32.7515 80.0333V73.2713H34.2215V80.0333H32.7515Z" fill="#6D40FE"/>
<path d="M44.595 77.3313V76.0713H51.609V77.3313H44.595ZM47.353 80.0333V73.2713H48.823V80.0333H47.353Z" fill="#6D40FE"/>
<path d="M59.1927 77.3313V76.0713H66.2067V77.3313H59.1927ZM61.9507 80.0333V73.2713H63.4207V80.0333H61.9507Z" fill="#6D40FE"/>
<path d="M73.7943 77.3313V76.0713H80.8083V77.3313H73.7943ZM76.5523 80.0333V73.2713H78.0223V80.0333H76.5523Z" fill="#6D40FE"/>
<path d="M88.3958 77.3313V76.0713H95.4098V77.3313H88.3958ZM91.1538 80.0333V73.2713H92.6238V80.0333H91.1538Z" fill="#6D40FE"/>
<path d="M102.993 77.3313V76.0713H110.007V77.3313H102.993ZM105.751 80.0333V73.2713H107.221V80.0333H105.751Z" fill="#6D40FE"/>
<path d="M117.595 77.3313V76.0713H124.609V77.3313H117.595ZM120.353 80.0333V73.2713H121.823V80.0333H120.353Z" fill="#6D40FE"/>
<path d="M132.193 77.3313V76.0713H139.207V77.3313H132.193ZM134.951 80.0333V73.2713H136.421V80.0333H134.951Z" fill="#6D40FE"/>
<path d="M0.794258 94.4866V93.2266H7.80826V94.4866H0.794258ZM3.55226 97.1886V90.4266H5.02226V97.1886H3.55226Z" fill="#6D40FE"/>
<path d="M15.3958 94.4866V93.2266H22.4098V94.4866H15.3958ZM18.1538 97.1886V90.4266H19.6238V97.1886H18.1538Z" fill="#6D40FE"/>
<path d="M29.9935 94.4866V93.2266H37.0075V94.4866H29.9935ZM32.7515 97.1886V90.4266H34.2215V97.1886H32.7515Z" fill="#6D40FE"/>
<path d="M44.595 94.4866V93.2266H51.609V94.4866H44.595ZM47.353 97.1886V90.4266H48.823V97.1886H47.353Z" fill="#6D40FE"/>
<path d="M59.1927 94.4866V93.2266H66.2067V94.4866H59.1927ZM61.9507 97.1886V90.4266H63.4207V97.1886H61.9507Z" fill="#6D40FE"/>
<path d="M73.7943 94.4866V93.2266H80.8083V94.4866H73.7943ZM76.5523 97.1886V90.4266H78.0223V97.1886H76.5523Z" fill="#6D40FE"/>
<path d="M88.3958 94.4866V93.2266H95.4098V94.4866H88.3958ZM91.1538 97.1886V90.4266H92.6238V97.1886H91.1538Z" fill="#6D40FE"/>
<path d="M102.993 94.4866V93.2266H110.007V94.4866H102.993ZM105.751 97.1886V90.4266H107.221V97.1886H105.751Z" fill="#6D40FE"/>
<path d="M117.595 94.4866V93.2266H124.609V94.4866H117.595ZM120.353 97.1886V90.4266H121.823V97.1886H120.353Z" fill="#6D40FE"/>
<path d="M132.193 94.4866V93.2266H139.207V94.4866H132.193ZM134.951 97.1886V90.4266H136.421V97.1886H134.951Z" fill="#6D40FE"/>
<path d="M0.794258 111.642V110.382H7.80826V111.642H0.794258ZM3.55226 114.344V107.582H5.02226V114.344H3.55226Z" fill="#6D40FE"/>
<path d="M15.3958 111.642V110.382H22.4098V111.642H15.3958ZM18.1538 114.344V107.582H19.6238V114.344H18.1538Z" fill="#6D40FE"/>
<path d="M29.9935 111.642V110.382H37.0075V111.642H29.9935ZM32.7515 114.344V107.582H34.2215V114.344H32.7515Z" fill="#6D40FE"/>
<path d="M44.595 111.642V110.382H51.609V111.642H44.595ZM47.353 114.344V107.582H48.823V114.344H47.353Z" fill="#6D40FE"/>
<path d="M59.1927 111.642V110.382H66.2067V111.642H59.1927ZM61.9507 114.344V107.582H63.4207V114.344H61.9507Z" fill="#6D40FE"/>
<path d="M73.7943 111.642V110.382H80.8083V111.642H73.7943ZM76.5523 114.344V107.582H78.0223V114.344H76.5523Z" fill="#6D40FE"/>
<path d="M88.3958 111.642V110.382H95.4098V111.642H88.3958ZM91.1538 114.344V107.582H92.6238V114.344H91.1538Z" fill="#6D40FE"/>
<path d="M102.993 111.642V110.382H110.007V111.642H102.993ZM105.751 114.344V107.582H107.221V114.344H105.751Z" fill="#6D40FE"/>
<path d="M117.595 111.642V110.382H124.609V111.642H117.595ZM120.353 114.344V107.582H121.823V114.344H120.353Z" fill="#6D40FE"/>
<path d="M132.193 111.642V110.382H139.207V111.642H132.193ZM134.951 114.344V107.582H136.421V114.344H134.951Z" fill="#6D40FE"/>
</svg>
