<svg width="140" height="115" viewBox="0 0 140 115" fill="none" xmlns="http://www.w3.org/2000/svg">
<path d="M0.794258 8.71V7.45H7.80826V8.71H0.794258ZM3.55226 11.412V4.65H5.02226V11.412H3.55226Z" fill="#6D40FE"/>
<path d="M15.3958 8.71V7.45H22.4098V8.71H15.3958ZM18.1538 11.412V4.65H19.6238V11.412H18.1538Z" fill="#6D40FE"/>
<path d="M29.9935 8.71V7.45H37.0075V8.71H29.9935ZM32.7515 11.412V4.65H34.2215V11.412H32.7515Z" fill="#6D40FE"/>
<path d="M44.595 8.71V7.45H51.609V8.71H44.595ZM47.353 11.412V4.65H48.823V11.412H47.353Z" fill="#6D40FE"/>
<path d="M59.1927 8.71V7.45H66.2067V8.71H59.1927ZM61.9507 11.412V4.65H63.4207V11.412H61.9507Z" fill="#6D40FE"/>
<path d="M73.7941 8.71V7.45H80.8081V8.71H73.7941ZM76.5521 11.412V4.65H78.0221V11.412H76.5521Z" fill="#6D40FE"/>
<path d="M88.3958 8.71V7.45H95.4098V8.71H88.3958ZM91.1538 11.412V4.65H92.6238V11.412H91.1538Z" fill="#6D40FE"/>
<path d="M102.993 8.71V7.45H110.007V8.71H102.993ZM105.751 11.412V4.65H107.221V11.412H105.751Z" fill="#6D40FE"/>
<path d="M117.595 8.71V7.45H124.609V8.71H117.595ZM120.353 11.412V4.65H121.823V11.412H120.353Z" fill="#6D40FE"/>
<path d="M132.193 8.71V7.45H139.207V8.71H132.193ZM134.951 11.412V4.65H136.421V11.412H134.951Z" fill="#6D40FE"/>
<path d="M0.794258 25.8517V24.5917H7.80826V25.8517H0.794258ZM3.55226 28.5537V21.7917H5.02226V28.5537H3.55226Z" fill="#6D40FE"/>
<path d="M15.3958 25.8517V24.5917H22.4098V25.8517H15.3958ZM18.1538 28.5537V21.7917H19.6238V28.5537H18.1538Z" fill="#6D40FE"/>
<path d="M29.9935 25.8517V24.5917H37.0075V25.8517H29.9935ZM32.7515 28.5537V21.7917H34.2215V28.5537H32.7515Z" fill="#6D40FE"/>
<path d="M44.595 25.8517V24.5917H51.609V25.8517H44.595ZM47.353 28.5537V21.7917H48.823V28.5537H47.353Z" fill="#6D40FE"/>
<path d="M59.1927 25.8517V24.5917H66.2067V25.8517H59.1927ZM61.9507 28.5537V21.7917H63.4207V28.5537H61.9507Z" fill="#6D40FE"/>
<path d="M73.7941 25.8517V24.5917H80.8081V25.8517H73.7941ZM76.5521 28.5537V21.7917H78.0221V28.5537H76.5521Z" fill="#6D40FE"/>
<path d="M88.3958 25.8517V24.5917H95.4098V25.8517H88.3958ZM91.1538 28.5537V21.7917H92.6238V28.5537H91.1538Z" fill="#6D40FE"/>
<path d="M102.993 25.8517V24.5917H110.007V25.8517H102.993ZM105.751 28.5537V21.7917H107.221V28.5537H105.751Z" fill="#6D40FE"/>
<path d="M117.595 25.8517V24.5917H124.609V25.8517H117.595ZM120.353 28.5537V21.7917H121.823V28.5537H120.353Z" fill="#6D40FE"/>
<path d="M132.193 25.8517V24.5917H139.207V25.8517H132.193ZM134.951 28.5537V21.7917H136.421V28.5537H134.951Z" fill="#6D40FE"/>
<path d="M0.794258 42.9933V41.7333H7.80826V42.9933H0.794258ZM3.55226 45.6953V38.9333H5.02226V45.6953H3.55226Z" fill="#6D40FE"/>
<path d="M15.3958 42.9933V41.7333H22.4098V42.9933H15.3958ZM18.1538 45.6953V38.9333H19.6238V45.6953H18.1538Z" fill="#6D40FE"/>
<path d="M29.9935 42.9933V41.7333H37.0075V42.9933H29.9935ZM32.7515 45.6953V38.9333H34.2215V45.6953H32.7515Z" fill="#6D40FE"/>
<path d="M44.595 42.9933V41.7333H51.609V42.9933H44.595ZM47.353 45.6953V38.9333H48.823V45.6953H47.353Z" fill="#6D40FE"/>
<path d="M59.1927 42.9933V41.7333H66.2067V42.9933H59.1927ZM61.9507 45.6953V38.9333H63.4207V45.6953H61.9507Z" fill="#6D40FE"/>
<path d="M73.7941 42.9933V41.7333H80.8081V42.9933H73.7941ZM76.5521 45.6953V38.9333H78.0221V45.6953H76.5521Z" fill="#6D40FE"/>
<path d="M88.3958 42.9933V41.7333H95.4098V42.9933H88.3958ZM91.1538 45.6953V38.9333H92.6238V45.6953H91.1538Z" fill="#6D40FE"/>
<path d="M102.993 42.9933V41.7333H110.007V42.9933H102.993ZM105.751 45.6953V38.9333H107.221V45.6953H105.751Z" fill="#6D40FE"/>
<path d="M117.595 42.9933V41.7333H124.609V42.9933H117.595ZM120.353 45.6953V38.9333H121.823V45.6953H120.353Z" fill="#6D40FE"/>
<path d="M132.193 42.9933V41.7333H139.207V42.9933H132.193ZM134.951 45.6953V38.9333H136.421V45.6953H134.951Z" fill="#6D40FE"/>
<path d="M0.794258 60.135V58.875H7.80826V60.135H0.794258ZM3.55226 62.837V56.075H5.02226V62.837H3.55226Z" fill="#6D40FE"/>
<path d="M15.3958 60.135V58.875H22.4098V60.135H15.3958ZM18.1538 62.837V56.075H19.6238V62.837H18.1538Z" fill="#6D40FE"/>
<path d="M29.9935 60.135V58.875H37.0075V60.135H29.9935ZM32.7515 62.837V56.075H34.2215V62.837H32.7515Z" fill="#6D40FE"/>
<path d="M44.595 60.135V58.875H51.609V60.135H44.595ZM47.353 62.837V56.075H48.823V62.837H47.353Z" fill="#6D40FE"/>
<path d="M59.1927 60.135V58.875H66.2067V60.135H59.1927ZM61.9507 62.837V56.075H63.4207V62.837H61.9507Z" fill="#6D40FE"/>
<path d="M73.7941 60.135V58.875H80.8081V60.135H73.7941ZM76.5521 62.837V56.075H78.0221V62.837H76.5521Z" fill="#6D40FE"/>
<path d="M88.3958 60.135V58.875H95.4098V60.135H88.3958ZM91.1538 62.837V56.075H92.6238V62.837H91.1538Z" fill="#6D40FE"/>
<path d="M102.993 60.135V58.875H110.007V60.135H102.993ZM105.751 62.837V56.075H107.221V62.837H105.751Z" fill="#6D40FE"/>
<path d="M117.595 60.135V58.875H124.609V60.135H117.595ZM120.353 62.837V56.075H121.823V62.837H120.353Z" fill="#6D40FE"/>
<path d="M132.193 60.135V58.875H139.207V60.135H132.193ZM134.951 62.837V56.075H136.421V62.837H134.951Z" fill="#6D40FE"/>
<path d="M0.794258 77.2768V76.0168H7.80826V77.2768H0.794258ZM3.55226 79.9788V73.2168H5.02226V79.9788H3.55226Z" fill="#6D40FE"/>
<path d="M15.3958 77.2768V76.0168H22.4098V77.2768H15.3958ZM18.1538 79.9788V73.2168H19.6238V79.9788H18.1538Z" fill="#6D40FE"/>
<path d="M29.9935 77.2768V76.0168H37.0075V77.2768H29.9935ZM32.7515 79.9788V73.2168H34.2215V79.9788H32.7515Z" fill="#6D40FE"/>
<path d="M44.595 77.2768V76.0168H51.609V77.2768H44.595ZM47.353 79.9788V73.2168H48.823V79.9788H47.353Z" fill="#6D40FE"/>
<path d="M59.1927 77.2768V76.0168H66.2067V77.2768H59.1927ZM61.9507 79.9788V73.2168H63.4207V79.9788H61.9507Z" fill="#6D40FE"/>
<path d="M73.7941 77.2768V76.0168H80.8081V77.2768H73.7941ZM76.5521 79.9788V73.2168H78.0221V79.9788H76.5521Z" fill="#6D40FE"/>
<path d="M88.3958 77.2768V76.0168H95.4098V77.2768H88.3958ZM91.1538 79.9788V73.2168H92.6238V79.9788H91.1538Z" fill="#6D40FE"/>
<path d="M102.993 77.2768V76.0168H110.007V77.2768H102.993ZM105.751 79.9788V73.2168H107.221V79.9788H105.751Z" fill="#6D40FE"/>
<path d="M117.595 77.2768V76.0168H124.609V77.2768H117.595ZM120.353 79.9788V73.2168H121.823V79.9788H120.353Z" fill="#6D40FE"/>
<path d="M132.193 77.2768V76.0168H139.207V77.2768H132.193ZM134.951 79.9788V73.2168H136.421V79.9788H134.951Z" fill="#6D40FE"/>
<path d="M0.794258 94.4184V93.1584H7.80826V94.4184H0.794258ZM3.55226 97.1204V90.3584H5.02226V97.1204H3.55226Z" fill="#6D40FE"/>
<path d="M15.3958 94.4184V93.1584H22.4098V94.4184H15.3958ZM18.1538 97.1204V90.3584H19.6238V97.1204H18.1538Z" fill="#6D40FE"/>
<path d="M29.9935 94.4184V93.1584H37.0075V94.4184H29.9935ZM32.7515 97.1204V90.3584H34.2215V97.1204H32.7515Z" fill="#6D40FE"/>
<path d="M44.595 94.4184V93.1584H51.609V94.4184H44.595ZM47.353 97.1204V90.3584H48.823V97.1204H47.353Z" fill="#6D40FE"/>
<path d="M59.1927 94.4184V93.1584H66.2067V94.4184H59.1927ZM61.9507 97.1204V90.3584H63.4207V97.1204H61.9507Z" fill="#6D40FE"/>
<path d="M73.7941 94.4184V93.1584H80.8081V94.4184H73.7941ZM76.5521 97.1204V90.3584H78.0221V97.1204H76.5521Z" fill="#6D40FE"/>
<path d="M88.3958 94.4184V93.1584H95.4098V94.4184H88.3958ZM91.1538 97.1204V90.3584H92.6238V97.1204H91.1538Z" fill="#6D40FE"/>
<path d="M102.993 94.4184V93.1584H110.007V94.4184H102.993ZM105.751 97.1204V90.3584H107.221V97.1204H105.751Z" fill="#6D40FE"/>
<path d="M117.595 94.4184V93.1584H124.609V94.4184H117.595ZM120.353 97.1204V90.3584H121.823V97.1204H120.353Z" fill="#6D40FE"/>
<path d="M132.193 94.4184V93.1584H139.207V94.4184H132.193ZM134.951 97.1204V90.3584H136.421V97.1204H134.951Z" fill="#6D40FE"/>
<path d="M0.794258 111.56V110.3H7.80826V111.56H0.794258ZM3.55226 114.262V107.5H5.02226V114.262H3.55226Z" fill="#6D40FE"/>
<path d="M15.3958 111.56V110.3H22.4098V111.56H15.3958ZM18.1538 114.262V107.5H19.6238V114.262H18.1538Z" fill="#6D40FE"/>
<path d="M29.9935 111.56V110.3H37.0075V111.56H29.9935ZM32.7515 114.262V107.5H34.2215V114.262H32.7515Z" fill="#6D40FE"/>
<path d="M44.595 111.56V110.3H51.609V111.56H44.595ZM47.353 114.262V107.5H48.823V114.262H47.353Z" fill="#6D40FE"/>
<path d="M59.1927 111.56V110.3H66.2067V111.56H59.1927ZM61.9507 114.262V107.5H63.4207V114.262H61.9507Z" fill="#6D40FE"/>
<path d="M73.7941 111.56V110.3H80.8081V111.56H73.7941ZM76.5521 114.262V107.5H78.0221V114.262H76.5521Z" fill="#6D40FE"/>
<path d="M88.3958 111.56V110.3H95.4098V111.56H88.3958ZM91.1538 114.262V107.5H92.6238V114.262H91.1538Z" fill="#6D40FE"/>
<path d="M102.993 111.56V110.3H110.007V111.56H102.993ZM105.751 114.262V107.5H107.221V114.262H105.751Z" fill="#6D40FE"/>
<path d="M117.595 111.56V110.3H124.609V111.56H117.595ZM120.353 114.262V107.5H121.823V114.262H120.353Z" fill="#6D40FE"/>
<path d="M132.193 111.56V110.3H139.207V111.56H132.193ZM134.951 114.262V107.5H136.421V114.262H134.951Z" fill="#6D40FE"/>
</svg>
