<svg width="44" height="51" viewBox="0 0 44 51" fill="none" xmlns="http://www.w3.org/2000/svg">
<path d="M43.3867 39.0195C43.1914 38.4336 42.5078 38.1406 41.9219 38.4336L39.1875 39.6055L33.5234 26.2266C33.3281 25.7383 32.7422 25.25 32.1562 25.25H18.582L17.7031 19H30.2031C30.7891 19 31.375 18.5117 31.375 17.8281V17.0469C31.375 16.4609 30.7891 15.875 30.2031 15.875H17.3125L16.3359 9.625C16.6289 9.625 16.9219 9.625 17.3125 9.625C19.9492 9.625 22.0977 7.47656 21.9023 4.83984C21.9023 2.39844 19.8516 0.347656 17.4102 0.347656C14.7734 0.152344 12.625 2.30078 12.625 4.9375C12.625 5.32812 12.332 3.57031 15.75 27.1055C15.8477 27.8867 16.4336 28.375 17.3125 28.375H31.082L36.9414 42.2422C37.2344 43.2188 38.2109 43.4141 38.9922 43.1211L43.0938 41.2656C43.6797 40.9727 43.9727 40.2891 43.7773 39.7031L43.3867 39.0195ZM30.9844 36.2852C29.5195 42.5352 23.9531 47.125 17.3125 47.125C9.5 47.125 3.25 40.875 3.25 33.0625C3.25 27.3984 6.66797 22.418 11.5508 20.2695L11.1602 17.0469C4.71484 19.4883 0.125 25.8359 0.125 33.0625C0.125 42.6328 7.74219 50.25 17.3125 50.25C24.0508 50.25 30.0078 46.3438 32.7422 40.4844L30.9844 36.2852Z" fill="#6E293C"/>
</svg>
