<?xml version="1.0" standalone="no"?>
<!DOCTYPE svg PUBLIC "-//W3C//DTD SVG 1.1//EN" "http://www.w3.org/Graphics/SVG/1.1/DTD/svg11.dtd" >
<svg xmlns="http://www.w3.org/2000/svg">
<metadata>Generated by IcoMoon</metadata>
<defs>
<font id="icomoon" horiz-adv-x="1024">
<font-face units-per-em="1024" ascent="960" descent="-64" />
<missing-glyph horiz-adv-x="1024" />
<glyph unicode="&#x20;" horiz-adv-x="512" d="" />
<glyph unicode="&#xe900;" glyph-name="instagram" d="M270.507 872.704c-24.188-3.445-46.040-10.495-66.053-20.648l1.199 0.552c-53.419-26.197-91.819-70.187-109.824-125.781-10.069-31.104-9.643-18.389-9.643-278.827 0-260.608-0.469-247.68 9.685-278.997 11.495-34.801 30.624-64.43 55.504-88.064l0.091-0.086c24.405-23.339 50.219-38.827 81.707-49.024 31.104-10.069 18.389-9.643 278.827-9.643s247.723-0.427 278.827 9.643c31.147 10.090 57.888 26.271 80.005 47.274l-0.090-0.085c31.531 29.653 51.285 63.616 62.421 107.392l4.651 18.389v486.4l-4.651 18.389c-11.136 43.776-30.891 77.739-62.379 107.349-31.985 29.617-73.114 49.78-118.702 55.816l-1.106 0.12c-18.005 2.219-463.061 2.048-480.469-0.171zM765.397 722.56c25.429-7.040 33.451-51.243 13.013-71.68-7.253-7.296-16.811-10.411-31.744-10.411-15.061 0-23.936 2.987-31.573 10.624s-10.624 16.512-10.624 31.573c0 5.632 0.896 13.525 1.963 17.579 2.389 8.789 12.331 19.328 20.693 22.016 7.808 2.475 29.781 2.688 38.272 0.299zM545.237 660.437c47.189-7.083 84.779-26.197 118.827-60.331 31.915-32.043 49.365-63.957 58.923-107.733 4.48-20.608 4.48-67.072 0-86.187-7.199-29.499-18.748-55.45-34.108-78.658l0.572 0.919c-9.003-13.227-31.445-36.907-44.672-47.104-35.839-27.801-81.449-44.568-130.976-44.568-34.913 0-67.879 8.332-97.021 23.115l1.224-0.563c-48.427 23.851-89.045 70.613-106.155 122.197-8.107 24.448-10.496 39.851-10.581 68.181-0.043 29.099 1.835 41.728 9.771 65.707 14.419 43.114 40.708 79.049 74.98 104.995l0.54 0.392c24.149 17.877 62.080 34.261 89.6 38.699 11.238 2.115 24.166 3.325 37.377 3.325 11.188 0 22.173-0.868 32.891-2.539l-1.191 0.153zM487.253 575.019c-30.592-6.827-60.971-26.795-77.739-51.2-6.997-10.155-16.64-30.72-19.669-41.941-3.925-14.507-4.736-37.931-1.92-53.547 14.037-77.312 91.989-124.331 165.376-99.797 51.597 17.183 88.141 65.034 88.141 121.419 0 57.783-38.378 106.602-91.035 122.359l-0.904 0.232c-17.237 4.907-46.165 6.059-62.251 2.475z" />
<glyph unicode="&#xe901;" glyph-name="youtube" d="M412.16 830.976c-167.765-4.181-255.616-11.392-288.085-23.637-45.995-17.365-81.109-51.584-96.725-94.251-8.491-23.168-17.835-83.797-23.339-151.595-3.499-43.136-4.011-156.501-0.853-197.12 4.992-64 14.763-134.912 21.077-152.747 20.48-57.856 66.731-96.213 129.365-107.392 29.355-5.248 79.744-9.429 159.573-13.312 60.117-2.901 337.536-2.901 397.653 0 106.581 5.163 157.397 10.496 185.173 19.456 49.216 16.545 87.24 54.583 103.43 102.66l0.335 1.148c6.528 20.352 16.256 91.477 21.035 153.6 2.773 36.395 2.816 149.461 0 186.027-5.291 69.248-15.488 137.387-24.149 160.981-13.013 35.627-43.008 68.821-77.611 85.973-28.757 14.208-58.88 19.371-142.507 24.363-75.733 4.48-284.288 7.851-364.373 5.845zM659.072 457.856c41.304 18.833-37.805-26.896-117.183-72.21l-124.865-65.646c-0.341 0-0.597 62.507-0.597 138.923v138.923l121.941-69.333c67.072-38.187 121.387-69.973 120.704-70.656z" />
<glyph unicode="&#xe902;" glyph-name="linkedin" d="M154.453 873.003c-30.108-6.401-54.103-27.669-64.234-55.586l-0.192-0.606c-4.992-13.611-4.949-41.429 0.085-55.211 9.169-24.697 28.343-43.815 52.465-52.709l0.612-0.198c13.525-4.949 41.429-4.949 54.955 0 24.735 9.092 43.909 28.21 52.878 52.296l0.199 0.611c2.816 7.637 3.584 13.781 3.584 27.733s-0.768 20.096-3.584 27.733c-9.1 24.695-28.307 43.79-52.468 52.543l-0.609 0.193c-10.88 3.797-33.536 5.461-43.691 3.2zM653.653 616.789c-73.557-8.192-142.891-50.389-183.424-111.616-17.663-26.439-31.108-57.38-38.489-90.604l-0.338-1.812c-3.797-16.64-3.84-18.304-4.352-182.784l-0.512-165.973h170.709l0.469 158.293c0.469 157.141 0.512 158.379 4.139 167.851 9.38 25.46 29.435 45.040 54.589 53.577l0.621 0.183c13.995 4.736 40.107 4.267 53.76-0.981 25.728-9.941 41.685-25.856 52.224-52.096l4.096-10.24 0.939-316.587h170.709l-0.512 165.973c-0.555 164.821-0.555 166.101-4.352 182.912-12.971 57.301-40.533 104.917-81.963 141.397-45.038 39.797-104.584 64.093-169.804 64.093-10.045 0-19.955-0.576-29.699-1.698l1.189 0.111zM85.333 320v-256h170.667v512h-170.667v-256z" />
<glyph unicode="&#xe903;" glyph-name="facebook" d="M611.84 872.704c-42.069-5.376-86.613-26.667-118.016-56.533-30.933-29.397-50.347-62.72-61.483-105.685l-4.565-17.579-1.365-159.573h-127.744v-170.667h128v-341.333h170.667v341.333h127.872l1.707 6.4 20.608 82.347c10.411 41.771 19.328 77.269 19.797 78.933 0.853 2.816-3.968 2.987-84.523 2.987h-85.461v67.115c0 76.331 0.256 78.336 12.757 90.795 12.459 12.501 14.464 12.757 90.795 12.757h67.115v170.667l-72.107-0.213c-39.68-0.128-77.483-0.896-84.053-1.749z" />
<glyph unicode="&#xe904;" glyph-name="arrow-right" d="M497.152 787.712c-9.216-4.181-22.016-16.981-26.197-26.197-1.963-4.377-3.106-9.487-3.106-14.865 0-5.561 1.223-10.837 3.415-15.573l-0.095 0.23c2.645-5.888 30.549-34.816 119.808-124.16l116.395-116.48h-250.965c-278.571 0-262.784 0.64-274.603-11.136-14.635-14.677-14.635-48.384 0-63.061 11.819-11.776-3.968-11.136 274.603-11.136h250.965l-116.395-116.48c-89.259-89.344-117.163-118.272-119.808-124.16-6.997-15.531-3.243-31.104 10.923-45.269s29.739-17.92 45.269-10.923c5.931 2.645 42.24 37.845 158.080 153.131 50.234 50.146 101.13 100.637 152.184 150.969l4.019 3.953c6.741 6.016 13.397 21.675 13.397 31.445s-6.656 25.429-13.397 31.445c-55.072 54.285-105.968 104.776-156.706 155.425l0.504-0.503c-115.84 115.285-152.149 150.485-158.080 153.131-4.506 2.096-9.782 3.32-15.343 3.32-5.377 0-10.487-1.143-15.1-3.2l0.236 0.094z" />
<glyph unicode="&#xe905;" glyph-name="arrow-left" d="M496.64 787.499c-5.931-2.645-42.24-37.845-158.080-153.131-50.234-50.146-101.13-100.637-152.184-150.969l-4.019-3.953c-6.741-6.016-13.397-21.675-13.397-31.445s6.656-25.429 13.397-31.445c3.2-2.901 73.515-72.619 156.203-154.923 115.84-115.285 152.149-150.485 158.080-153.131 15.531-6.997 31.104-3.243 45.269 10.923s17.92 29.739 10.923 45.269c-2.645 5.888-30.549 34.816-119.808 124.16l-116.395 116.48h250.965c278.571 0 262.784-0.64 274.603 11.136 14.635 14.677 14.635 48.384 0 63.061-11.819 11.776 3.968 11.136-274.603 11.136h-250.965l116.395 116.48c89.259 89.344 117.163 118.272 119.808 124.16 6.997 15.531 3.243 31.104-10.923 45.269s-29.739 17.92-45.269 10.923z" />
<glyph unicode="&#xe906;" glyph-name="menu" d="M110.507 743.936c-5.434-1.905-10.1-4.77-14.018-8.427l0.023 0.021c-14.677-14.677-14.72-48.384-0.043-63.061 11.989-11.989-19.157-11.136 415.531-11.136s403.541-0.853 415.531 11.136c14.635 14.677 14.635 48.384 0 63.061-11.989 11.989 19.285 11.136-416.256 11.008-339.115-0.085-393.771-0.469-400.768-2.603zM110.507 487.936c-5.434-1.905-10.1-4.77-14.018-8.427l0.023 0.021c-14.677-14.677-14.72-48.384-0.043-63.061 11.989-11.989-19.157-11.136 415.531-11.136s403.541-0.853 415.531 11.136c14.635 14.677 14.635 48.384 0 63.061-11.989 11.989 19.285 11.136-416.256 11.008-339.115-0.085-393.771-0.469-400.768-2.603zM110.507 231.936c-5.434-1.905-10.1-4.77-14.018-8.427l0.023 0.021c-14.677-14.677-14.72-48.384-0.043-63.061 11.989-11.989-19.157-11.136 415.531-11.136s403.541-0.853 415.531 11.136c14.635 14.677 14.635 48.384 0 63.061-11.989 11.989 19.285 11.136-416.256 11.008-339.115-0.085-393.771-0.469-400.768-2.603z" />
<glyph unicode="&#xe907;" glyph-name="phone" d="M154.453 915.371c-53.077-9.771-93.312-48.811-103.979-100.779-3.371-16.512-3.413-29.867-0.085-55.467 12.971-100.565 40.875-193.365 84.267-280.405 71.083-142.549 174.507-261.589 300.544-345.899 120.192-80.384 241.109-127.147 378.88-146.56 34.901-4.907 46.549-5.163 64.512-1.493 53.12 10.88 91.819 51.712 101.077 106.581 1.237 7.424 1.664 37.931 1.237 91.307-0.555 70.016-0.981 81.451-3.584 90.411-10.112 34.731-35.328 65.707-65.963 81.024-14.080 7.040-23.893 9.771-52.053 14.592-34.017 5.478-64.147 13.375-93.060 23.817l3.545-1.118-28.245 9.6-25.6-0.043c-23.125-0.043-26.923-0.469-39.253-4.608-22.016-7.339-37.504-17.621-61.269-40.619l-21.291-20.565-4.821 3.072c-61.952 39.509-127.701 102.571-171.392 164.395-3.087 4.145-8.254 11.539-13.329 19.001l-2.373 3.698-3.072 4.821 20.565 21.291c22.997 23.765 33.237 39.253 40.619 61.269 4.181 12.459 4.565 15.915 4.523 39.253l-0.085 25.6-9.6 28.715c-9.189 25.193-17.011 55.166-22.082 86.064l-0.404 2.981c-5.035 29.611-7.595 38.315-15.829 54.144-9.87 18.41-23.646 33.552-40.304 44.733l-0.443 0.28c-31.744 21.504-39.424 22.784-137.173 22.613-41.771-0.085-79.787-0.853-84.48-1.707zM323.669 827.349c8.875-4.736 18.261-15.573 20.736-23.936 1.024-3.499 3.499-16 5.461-27.733 4.949-29.611 12.373-59.349 22.613-90.453 14.763-44.971 14.891-44.587-30.293-90.453-38.357-38.997-41.173-43.264-39.765-60.416 0.939-11.051 7.893-23.979 34.688-64.171 53.040-78.464 118.614-144.037 194.55-195.463l2.527-1.614c40.235-26.709 52.48-33.365 63.744-34.517 17.323-1.792 21.547 0.939 60.16 39.040 21.931 21.589 36.693 34.773 40.832 36.523 11.435 4.779 21.717 3.627 50.347-5.76 31.189-10.155 60.971-17.621 90.411-22.528 11.733-1.963 24.235-4.437 27.733-5.461 8.363-2.475 19.2-11.861 23.936-20.736 3.755-6.997 3.797-7.851 3.797-84.736 0-76.8-0.043-77.739-3.755-84.693-7.040-13.184-22.443-22.741-36.736-22.784-10.24-0.043-40.021 4.011-69.589 9.515-134.997 25.088-270.080 91.136-378.88 185.216-121.429 105.045-213.675 254.507-252.629 409.387-10.795 43.008-20.48 99.669-20.395 119.253 0.513 16.471 10.379 30.519 24.443 37.054l0.261 0.109 8.533 4.053 75.093-0.469c73.856-0.427 75.221-0.469 82.176-4.224z" />
<glyph unicode="&#xe908;" glyph-name="mail" d="M149.589 830.208c-27.52-4.608-46.848-14.933-68.523-36.608-22.4-22.4-32.043-40.875-36.779-70.571-2.389-14.933-2.261-535.765 0.128-550.912 4.565-28.672 14.464-47.531 36.651-69.717 22.144-22.144 40.832-32 69.675-36.651 14.891-2.432 708.053-2.347 723.072 0.085 27.904 4.48 47.275 14.763 69.12 36.565 21.845 21.888 32.171 41.344 36.565 69.12 2.56 16.171 2.688 536.149 0.128 552.107-4.565 28.715-14.635 47.872-36.693 69.973-22.144 22.144-40.789 32-69.675 36.651-12.8 2.091-711.253 2.048-723.669-0.043zM871.765 742.741c6.571-3.584 19.157-16.085 19.029-18.901-0.128-2.517-375.296-264.747-378.795-264.747-3.328 0-378.709 262.187-378.752 264.533-0.043 1.92 7.253 10.453 12.971 15.189 9.813 8.064-5.675 7.723 368.341 7.339 335.147-0.341 351.829-0.469 357.205-3.413zM312.192 493.269c98.944-69.248 182.443-126.933 185.515-128.256 8.235-3.413 22.229-2.944 30.379 1.067 3.84 1.877 87.979 60.117 187.008 129.493l180.053 126.080 0.512-215.253c0.256-118.4 0.043-218.453-0.512-222.336-2.133-15.019-18.816-31.744-33.877-33.877-3.883-0.555-163.755-0.768-355.243-0.512-329.131 0.469-348.459 0.683-353.664 3.541-8.402 5.198-15.282 12.078-20.327 20.216l-0.153 0.264c-2.859 5.163-3.072 18.944-3.499 227.157-0.341 178.56 0 221.355 1.707 219.989 1.195-0.939 83.115-58.368 182.101-127.573z" />
<glyph unicode="&#xe909;" glyph-name="arrow-up-right" d="M500.907 704l-216.747-0.853-8.107-3.968c-4.597-2.329-8.491-5.378-11.695-9.043l-0.038-0.045c-11.947-16.811-10.539-46.891 2.816-60.288 11.563-11.52 5.12-11.136 189.269-11.136h165.632l-180.395-180.48c-140.245-140.331-181.12-182.187-183.808-188.16-6.997-15.531-3.243-31.104 10.923-45.269s29.739-17.92 45.269-10.923c5.973 2.688 47.829 43.563 188.16 183.808l180.48 180.395v-165.632c0-184.149-0.384-177.707 11.136-189.269 14.677-14.635 48.384-14.635 63.061 0 11.563 11.605 11.008-0.939 11.221 246.485l0.171 223.317-4.48 9.515c-2.298 5.040-5.418 9.321-9.233 12.862l-0.025 0.023c-7.979 5.675-22.016 10.411-29.653 9.941-3.968-0.213-104.747-0.768-223.957-1.28z" />
<glyph unicode="&#xe90a;" glyph-name="play-circle" d="M472.277 915.669c-95.957-9.344-179.243-42.752-254.677-102.187-15.701-12.373-59.008-55.723-71.808-71.936-50.178-62.827-85.083-139.957-97.889-224.344l-0.33-2.643c-5.461-35.584-5.461-97.536 0-133.12 12.984-87.438 48.191-164.918 99.651-228.746l-0.707 0.906c12.117-15.403 55.68-58.965 71.083-71.083 62.922-50.753 140.402-85.96 225.248-98.626l2.592-0.318c35.584-5.461 97.536-5.461 133.12 0 105.557 16.171 196.395 62.464 268.843 137.003 59.861 61.568 98.688 130.901 119.424 213.077 10.368 41.045 13.355 66.859 13.355 114.347s-2.987 73.301-13.355 114.347c-29.036 113.268-96.353 207.633-187.052 270.733l-1.534 1.011c-56.193 39.432-123.497 67.060-196.304 77.775l-2.522 0.305c-27.051 4.053-82.816 5.845-107.136 3.499zM573.44 827.179c67.755-11.563 132.821-41.088 182.613-82.773 62.11-51.731 107.519-121.595 128.176-201.421l0.592-2.696c8.192-32.683 10.283-51.285 10.283-92.288s-2.091-59.605-10.283-92.288c-13.611-54.357-42.112-110.891-76.459-151.765-54.357-64.64-124.373-108.8-204.075-128.768-32.683-8.192-51.285-10.283-92.288-10.283s-59.605 2.091-92.288 10.283c-54.229 13.568-110.464 41.899-151.765 76.373-41.545 34.237-75.194 76.441-98.9 124.435l-0.982 2.2c-16.817 32.634-29.416 70.518-35.771 110.483l-0.283 2.157c-4.352 26.411-4.352 87.936 0 114.347 11.264 68.693 39.979 133.675 81.664 184.747 34.709 42.419 77.542 76.794 126.293 101.059l2.219 1c39.695 20.295 85.998 34.157 134.98 38.835l1.553 0.12c17.323 1.835 75.733-0.512 94.72-3.755zM409.173 658.688c-5.435-1.995-10.104-4.879-14.068-8.518l0.031 0.028c-11.691-11.691-11.264-3.669-10.752-204.032 0.512-201.173-0.555-183.893 12.715-199.424 11.989-14.037 27.733-17.493 44.075-9.643 4.693 2.219 67.968 43.904 140.629 92.544 129.963 87.040 132.224 88.661 138.069 98.304 10.752 17.707 8.917 35.627-4.907 48.128-7.851 7.083-265.984 179.499-272.725 182.144-7.68 3.029-24.363 3.285-33.067 0.469zM541.44 490.923c34.475-22.955 62.72-42.283 62.72-42.923 0-0.853-92.971-63.573-130.133-87.808l-4.693-3.029v181.675l4.693-3.029 67.413-44.885z" />
<glyph unicode="&#xe90b;" glyph-name="check" d="M837.973 744.832c-6.016-2.688-56.491-52.267-230.827-226.475l-223.147-223.061-95.147 95.019c-72.363 72.277-96.981 95.872-102.827 98.517-15.488 6.997-31.104 3.243-45.269-10.923s-17.92-29.739-10.923-45.269c4.992-11.136 227.669-233.813 238.805-238.805 4.514-2.083 9.795-3.298 15.36-3.298s10.846 1.215 15.593 3.394l-0.233-0.096c11.221 5.035 489.771 483.584 494.805 494.805 6.997 15.531 3.243 31.104-10.923 45.269s-29.739 17.92-45.269 10.923z" />
<glyph unicode="&#xe90c;" glyph-name="chevron-up" d="M496.64 616.832c-11.179-4.992-276.48-270.293-281.472-281.472-6.997-15.531-3.243-31.104 10.923-45.269s29.739-17.92 45.269-10.923c5.888 2.645 34.816 30.549 124.16 119.808l116.48 116.395 116.48-116.395c89.344-89.259 118.272-117.163 124.16-119.808 15.531-6.997 31.104-3.243 45.269 10.923s17.92 29.739 10.923 45.269c-2.645 5.931-34.133 38.357-138.624 142.848-143.701 143.701-141.867 142.080-158.208 142.080-4.224 0-11.136-1.536-15.36-3.456z" />
<glyph unicode="&#xe90d;" glyph-name="chevron-down" d="M241.152 617.045c-9.216-4.181-22.016-16.981-26.197-26.197-1.963-4.377-3.106-9.487-3.106-14.865 0-5.561 1.223-10.837 3.415-15.573l-0.095 0.23c2.645-5.931 34.133-38.357 138.624-142.848 143.701-143.701 141.867-142.080 158.208-142.080s14.507-1.621 158.208 142.080c104.491 104.491 135.979 136.917 138.624 142.848 6.997 15.531 3.243 31.104-10.923 45.269s-29.739 17.92-45.269 10.923c-5.888-2.645-34.816-30.549-124.16-119.808l-116.48-116.395-116.48 116.395c-89.344 89.259-118.272 117.163-124.16 119.808-4.506 2.096-9.782 3.32-15.343 3.32-5.377 0-10.487-1.143-15.1-3.2l0.236 0.094z" />
<glyph unicode="&#xe90e;" glyph-name="book-open" d="M67.84 871.936c-5.434-1.905-10.1-4.77-14.018-8.427l0.023 0.021c-11.947-11.947-11.179 12.331-11.179-351.531 0-363.776-0.768-339.584 11.136-351.531 11.52-11.477 5.845-11.136 182.528-11.136 172.8 0 167.893 0.256 187.349-9.6 11.477-5.803 30.251-24.576 36.053-36.053 5.931-11.733 9.6-26.197 9.6-38.016 0-28.245 15.488-44.331 42.667-44.331s42.667 16.085 42.667 44.331c0 11.819 3.669 26.283 9.6 38.016 5.803 11.477 24.576 30.251 36.053 36.053 19.456 9.856 14.549 9.6 187.349 9.6 176.683 0 171.008-0.341 182.528 11.136 11.904 11.947 11.136-12.245 11.136 351.531s0.768 339.584-11.136 351.531c-11.392 11.349-8.32 11.136-158.933 11.136-87.168 0-141.525-0.683-152.832-1.877-34.688-3.755-71.979-18.389-102.187-40.107-12.672-9.173-35.2-30.848-41.344-39.893l-2.901-4.224-2.901 4.224c-5.129 6.324-10.221 11.984-15.583 17.375l0.010-0.010c-32.725 33.92-81.237 57.515-128.64 62.72-10.368 1.109-67.712 1.749-152.747 1.664-114.304-0.085-137.515-0.512-144.299-2.603zM378.027 784.469c41.124-13.554 72.888-45.319 86.171-85.495l0.271-0.947 4.011-11.947 0.469-236.8c0.256-130.261 0.043-236.8-0.469-236.8-0.555 0-4.992 2.048-9.856 4.523-14.216 7.103-30.715 12.417-48.089 15.072l-0.935 0.118c-13.099 1.963-41.643 2.475-148.907 2.475h-132.693v554.795l238.080-1.024 11.947-3.968zM896 512v-277.333h-132.693c-107.264 0-135.808-0.512-148.907-2.475-17.579-2.688-34.987-8.107-49.024-15.189-2.693-1.51-5.925-3.030-9.265-4.334l-0.548-0.188c-0.555 0-0.768 106.539-0.512 236.8l0.469 236.8 4.011 11.947c15.616 46.507 53.248 80.384 99.371 89.472 4.139 0.811 59.221 1.536 122.325 1.664l114.773 0.171v-277.333z" />
<glyph unicode="&#xe90f;" glyph-name="monitor" d="M149.589 872.875c-27.563-4.608-46.891-14.933-68.523-36.608-22.144-22.144-31.957-40.789-36.651-69.675-2.347-14.379-2.347-452.139 0-466.517 4.693-28.885 14.507-47.531 36.651-69.675s40.789-31.957 69.675-36.651c6.485-1.067 69.845-1.749 164.565-1.749h154.027v-85.333h-67.968c-76.373 0-80.939-0.555-91.563-11.136-14.635-14.677-14.635-48.384 0-63.061 11.605-11.563 3.755-11.136 202.197-11.136s190.592-0.427 202.197 11.136c14.635 14.677 14.635 48.384 0 63.061-10.624 10.581-15.189 11.136-91.563 11.136h-67.968v85.333h154.027c94.72 0 158.080 0.683 164.565 1.749 28.885 4.693 47.531 14.507 69.675 36.651s31.957 40.789 36.651 69.675c2.347 14.379 2.347 452.139 0 466.517-4.693 28.885-14.507 47.531-36.651 69.675s-40.789 31.957-69.675 36.651c-12.8 2.091-711.253 2.048-723.669-0.043zM867.413 786.901c9.429-3.371 17.664-10.283 22.997-19.371l4.736-8.064v-452.267l-4.736-8.064c-5.205-8.884-13.166-15.672-22.692-19.27l-0.305-0.101c-9.515-3.371-701.312-3.371-710.827 0-9.832 3.699-17.793 10.487-22.884 19.162l-0.113 0.208-4.736 8.064v452.267l4.736 8.064c5.333 9.088 13.568 16 22.997 19.371 9.515 3.371 701.312 3.371 710.827 0z" />
<glyph unicode="&#xe910;" glyph-name="minus" d="M195.84 487.936c-5.434-1.905-10.1-4.77-14.018-8.427l0.023 0.021c-14.677-14.677-14.72-48.384-0.043-63.061 11.904-11.861-9.941-11.136 330.197-11.136s318.293-0.725 330.197 11.136c14.635 14.677 14.635 48.384 0 63.061-11.904 11.861 10.069 11.136-330.923 11.008-264.32-0.085-308.48-0.469-315.435-2.603z" />
<glyph unicode="&#xe911;" glyph-name="plus" d="M494.507 786.603c-5.434-1.905-10.1-4.77-14.018-8.427l0.023 0.021c-11.392-11.349-11.179-8.661-11.179-155.563v-131.968h-131.968c-146.901 0-144.213 0.171-155.563-11.136-14.635-14.677-14.635-48.384 0-63.061 11.349-11.307 8.661-11.136 155.563-11.136h131.968v-131.968c0-146.901-0.171-144.213 11.136-155.563 14.677-14.635 48.384-14.635 63.061 0 11.307 11.349 11.136 8.661 11.136 155.563v131.968h131.968c146.901 0 144.213-0.171 155.563 11.136 14.635 14.677 14.635 48.384 0 63.061-11.349 11.307-8.661 11.136-155.563 11.136h-131.968v131.968c0 146.901 0.171 144.213-11.136 155.563-10.283 10.283-31.232 13.867-49.024 8.405z" />
<glyph unicode="&#xe912;" glyph-name="chevron-left" d="M624.64 744.832c-11.179-4.992-276.48-270.293-281.472-281.472-2.083-4.514-3.298-9.795-3.298-15.36s1.215-10.846 3.394-15.593l-0.096 0.233c4.992-11.179 270.293-276.48 281.472-281.472 15.531-6.997 31.104-3.243 45.269 10.923s17.92 29.739 10.923 45.269c-2.645 5.888-30.549 34.816-119.808 124.16l-116.395 116.48 116.395 116.48c89.259 89.344 117.163 118.272 119.808 124.16 6.997 15.531 3.243 31.104-10.923 45.269s-29.739 17.92-45.269 10.923z" />
<glyph unicode="&#xe913;" glyph-name="chevron-right" d="M369.152 745.045c-9.216-4.181-22.016-16.981-26.197-26.197-1.963-4.377-3.106-9.487-3.106-14.865 0-5.561 1.223-10.837 3.415-15.573l-0.095 0.23c2.645-5.888 30.549-34.816 119.808-124.16l116.395-116.48-116.395-116.48c-89.259-89.344-117.163-118.272-119.808-124.16-6.997-15.531-3.243-31.104 10.923-45.269s29.739-17.92 45.269-10.923c5.931 2.645 38.357 34.133 142.848 138.624 143.701 143.701 142.080 141.867 142.080 158.208s1.621 14.507-142.080 158.208c-104.491 104.491-136.917 135.979-142.848 138.624-4.506 2.096-9.782 3.32-15.343 3.32-5.377 0-10.487-1.143-15.1-3.2l0.236 0.094z" />
<glyph unicode="&#xe914;" glyph-name="play-fill" horiz-adv-x="796" d="M30.222 855.657c0 45.038 49.849 72.216 87.706 47.819l632.567-407.659c34.759-22.402 34.759-73.235 0-95.638l-632.567-407.66c-37.857-24.394-87.706 2.782-87.706 47.821v815.317z" />
</font>
</defs>
</svg>
